<svg xmlns="http://www.w3.org/2000/svg" xmlns:xlink="http://www.w3.org/1999/xlink" width="363.31" height="359.94" viewBox="0 0 363.31 359.94"><defs><style>.a{fill:url(#a);}</style><linearGradient id="a" x1="347.82" y1="13.8" x2="15.49" y2="346.14" gradientUnits="userSpaceOnUse"><stop offset="0" stop-color="#f6e0ad"/><stop offset="1" stop-color="#d43e6a"/></linearGradient></defs><title>Asset 6</title><rect class="a" width="363.31" height="359.94" rx="50"/><path d="M116.7,167.85v14.57h14v3.72h-14v14.7h-4v-14.7h-14v-3.72h14V167.85Z"/><path d="M157.81,187.69l-4.34,13.15h-5.58l14.2-41.8h6.51l14.26,41.8H177.1l-4.47-13.15Zm13.71-4.22-4.1-12c-.93-2.73-1.55-5.21-2.17-7.62h-.12c-.62,2.48-1.3,5-2.11,7.56l-4.09,12.09Z"/><path d="M189,159.6a76.73,76.73,0,0,1,11.47-.87c7.76,0,13.27,1.8,16.93,5.21s5.9,8.25,5.9,15-2.11,12.4-6,16.24-10.36,6-18.48,6a87,87,0,0,1-9.8-.5Zm5.4,37a33.7,33.7,0,0,0,5.45.31c11.54,0,17.8-6.45,17.8-17.74.06-9.86-5.52-16.12-16.93-16.12a30.53,30.53,0,0,0-6.32.56Z"/><path d="M230.3,159.6a76.62,76.62,0,0,1,11.47-.87c7.75,0,13.27,1.8,16.93,5.21s5.89,8.25,5.89,15-2.11,12.4-6,16.24-10.36,6-18.48,6a87,87,0,0,1-9.8-.5Zm5.39,37a33.91,33.91,0,0,0,5.46.31c11.54,0,17.8-6.45,17.8-17.74C259,169.27,253.43,163,242,163a30.72,30.72,0,0,0-6.33.56Z"/></svg>