<svg xmlns="http://www.w3.org/2000/svg" width="662.7" height="621.18" viewBox="0 0 662.7 621.18"><defs><style>.a,.b{fill:#fff;}.a{fill-rule:evenodd;}</style></defs><title>Asset 1</title><path class="a" d="M469.1,138.18l-68.49,1.11-34.24-34.22,34.8-34.77Zm-99,166.72,33.13-33.12,67.36.7L404.1,338.91Zm-105.14,34L129.07,203.14,262,70.3l34,34,35.55,35.54,46.29,46.25,69.87.3,69.89.29,69.88.3L400.4,0,330.82,69.54,261.23,0,58.72,202.37l207,206.83,69.59-69.54,69.58,69.54,185-184.89L519,224.05l-67.8-.25-70.86-.25-45.85,45.82-34.79,34.76Z"/><polygon class="a" points="322.78 148.64 285.96 114.37 197.89 202.37 291.59 296.01 323.86 258.72 268.24 203.14 322.78 148.64"/><path class="b" d="M27.8,508.42v42.52H0V427.51H43.55q46.67,0,46.66,39.33,0,18.6-13.39,30.09T41.06,508.42Zm0-59.57v38.48H38.73q22.22,0,22.21-19.45,0-19-22.21-19Z"/><path class="b" d="M211.83,550.94H179.9l-19.2-31.76q-2.14-3.61-4.13-6.46a36,36,0,0,0-4-4.86,16,16,0,0,0-4.22-3.1,10.65,10.65,0,0,0-4.78-1.08h-7.48v47.26H108.28V427.51h44.07q44.94,0,44.94,33.57a34.79,34.79,0,0,1-2,11.92,33.29,33.29,0,0,1-5.6,9.85,35.39,35.39,0,0,1-8.73,7.58,45.09,45.09,0,0,1-11.41,5v.34a18.06,18.06,0,0,1,5.34,2.8,38.55,38.55,0,0,1,5,4.52,63.33,63.33,0,0,1,4.6,5.55c1.47,2,2.8,3.92,4,5.81Zm-75.74-102.6v34.34h12q8.94,0,14.37-5.16a17.26,17.26,0,0,0,5.51-13q0-16.18-19.37-16.18Z"/><path class="b" d="M275.53,553.09q-26.52,0-43.21-17.26t-16.7-45q0-29.26,17-47.34t44.93-18.08q26.43,0,42.74,17.3t16.31,45.62q0,29.1-16.92,46.91T275.53,553.09Zm1.2-103.72q-14.62,0-23.24,11t-8.6,29q0,18.35,8.6,29a27.59,27.59,0,0,0,22.56,10.68q14.37,0,22.81-10.38t8.43-28.79q0-19.19-8.18-29.87T276.73,449.37Z"/><path class="b" d="M384.85,508.42v42.52H357V427.51H400.6q46.65,0,46.65,39.33,0,18.6-13.38,30.09T398.1,508.42Zm0-59.57v38.48h10.93q22.2,0,22.21-19.45,0-19-22.21-19Z"/><path class="b" d="M539.35,550.94h-74V427.51h71.18v22.63H493.13V477.6H533.5v22.55H493.13v28.24h46.22Z"/><path class="b" d="M662.7,550.94H630.77l-19.2-31.76q-2.15-3.61-4.13-6.46a36.81,36.81,0,0,0-4-4.86,16,16,0,0,0-4.22-3.1,10.68,10.68,0,0,0-4.78-1.08H587v47.26h-27.8V427.51h44.07q44.94,0,44.93,33.57a34.79,34.79,0,0,1-2,11.92,33,33,0,0,1-5.59,9.85,35.26,35.26,0,0,1-8.74,7.58,44.87,44.87,0,0,1-11.4,5v.34a17.89,17.89,0,0,1,5.33,2.8,38,38,0,0,1,5,4.52,63.33,63.33,0,0,1,4.6,5.55c1.46,2,2.8,3.92,4,5.81ZM587,448.34v34.34h12q9,0,14.38-5.16a17.26,17.26,0,0,0,5.51-13q0-16.18-19.37-16.18Z"/><path class="b" d="M44.22,592v15.47h-4.8V566.49H50.67c4.37,0,7.77,1.07,10.17,3.2s3.61,5.14,3.61,9a12.37,12.37,0,0,1-4,9.53q-4,3.72-10.83,3.71Zm0-21.12v16.78h5q5,0,7.58-2.26a8,8,0,0,0,2.61-6.41q0-8.12-9.59-8.11Z"/><path class="b" d="M86.77,582.93a5.79,5.79,0,0,0-3.54-.94,6,6,0,0,0-5,2.83,13.05,13.05,0,0,0-2,7.7v14.9H71.53V578.2h4.68v6h.12a10.13,10.13,0,0,1,3-4.81,7,7,0,0,1,4.6-1.73,7.78,7.78,0,0,1,2.79.4Z"/><path class="b" d="M104.07,608.11A13.57,13.57,0,0,1,93.72,604q-3.87-4.1-3.87-10.86,0-7.36,4-11.5t10.87-4.14q6.54,0,10.21,4t3.66,11.15q0,7-4,11.21A13.88,13.88,0,0,1,104.07,608.11Zm.34-26.66a8.89,8.89,0,0,0-7.14,3.07q-2.62,3.06-2.62,8.46,0,5.19,2.65,8.19a9,9,0,0,0,7.11,3,8.56,8.56,0,0,0,7-2.94q2.44-2.94,2.44-8.36c0-3.66-.81-6.47-2.44-8.45A8.52,8.52,0,0,0,104.41,581.45Z"/><path class="b" d="M130.9,603.2h-.12v17.66H126.1V578.2h4.68v5.13h.12a11.05,11.05,0,0,1,10.1-5.82,10.71,10.71,0,0,1,8.82,3.92Q153,585.36,153,592q0,7.34-3.57,11.75a11.88,11.88,0,0,1-9.76,4.41A9.77,9.77,0,0,1,130.9,603.2Zm-.12-11.79v4.08a8.68,8.68,0,0,0,2.36,6.15,8.39,8.39,0,0,0,12.64-.73c1.61-2.16,2.41-5.18,2.41-9q0-4.89-2.25-7.65a7.46,7.46,0,0,0-6.11-2.77,8.32,8.32,0,0,0-6.57,2.84A10.45,10.45,0,0,0,130.78,591.41Z"/><path class="b" d="M184,594H163.32c.07,3.25,1,5.76,2.62,7.53a9.07,9.07,0,0,0,6.91,2.66,14.38,14.38,0,0,0,9.08-3.26v4.4q-3.85,2.79-10.19,2.8t-9.74-4q-3.52-4-3.53-11.21,0-6.81,3.86-11.11a12.39,12.39,0,0,1,9.61-4.3q5.73,0,8.87,3.71t3.14,10.3Zm-4.79-4a9.52,9.52,0,0,0-2-6.31,6.66,6.66,0,0,0-5.35-2.25,7.55,7.55,0,0,0-5.62,2.37,10.81,10.81,0,0,0-2.86,6.19Z"/><path class="b" d="M206.27,582.93a5.79,5.79,0,0,0-3.54-.94,6,6,0,0,0-5,2.83,13.05,13.05,0,0,0-2,7.7v14.9H191V578.2h4.68v6h.12a10.13,10.13,0,0,1,3-4.81,7,7,0,0,1,4.59-1.73,7.8,7.8,0,0,1,2.8.4Z"/><path class="b" d="M224.91,607.14a9.15,9.15,0,0,1-4.37.91q-7.68,0-7.68-8.56v-17.3h-5v-4h5v-7.14l4.68-1.51v8.65h7.37v4h-7.37v16.47a6.83,6.83,0,0,0,1,4.19,4,4,0,0,0,3.31,1.26,4.93,4.93,0,0,0,3.06-1Z"/><path class="b" d="M254.42,578.2,241,612.1q-3.6,9.07-10.11,9.08a11,11,0,0,1-3.05-.37v-4.2a8.77,8.77,0,0,0,2.77.52q3.54,0,5.31-4.23l2.34-5.54L226.82,578.2H232l7.91,22.49q.15.42.6,2.22h.17c.1-.45.29-1.18.57-2.17l8.31-22.54Z"/><path class="b" d="M317.81,607.42H313V580q0-3.26.4-8h-.11a25.87,25.87,0,0,1-1.23,4l-14,31.45h-2.34L281.82,576.2a24.59,24.59,0,0,1-1.23-4.2h-.11q.22,2.46.22,8v27.4h-4.62V566.49h6.34L295,595a37.45,37.45,0,0,1,1.88,4.91H297c.82-2.24,1.47-3.92,2-5l12.81-28.43h6Z"/><path class="b" d="M348.86,607.42h-4.68v-4.57h-.12a9.78,9.78,0,0,1-9,5.26,9.55,9.55,0,0,1-6.83-2.32,8,8,0,0,1-2.47-6.13q0-8.19,9.65-9.53l8.76-1.23q0-7.46-6-7.45a14.41,14.41,0,0,0-9.54,3.6v-4.8a18.12,18.12,0,0,1,9.94-2.74q10.29,0,10.3,10.9Zm-4.68-14.78-7.05,1a11.38,11.38,0,0,0-4.91,1.61c-1.1.77-1.66,2.14-1.66,4.1a4.45,4.45,0,0,0,1.53,3.49,5.89,5.89,0,0,0,4.07,1.36,7.53,7.53,0,0,0,5.75-2.44,8.74,8.74,0,0,0,2.27-6.18Z"/><path class="b" d="M381.94,607.42h-4.68V590.75q0-9.3-6.8-9.3a7.35,7.35,0,0,0-5.8,2.64,9.74,9.74,0,0,0-2.3,6.66v16.67h-4.68V578.2h4.68v4.85h.11a10.56,10.56,0,0,1,9.59-5.54,8.94,8.94,0,0,1,7.34,3.1q2.53,3.09,2.54,8.94Z"/><path class="b" d="M411.68,607.42H407v-4.57h-.12a9.78,9.78,0,0,1-9,5.26,9.55,9.55,0,0,1-6.83-2.32,8,8,0,0,1-2.47-6.13q0-8.19,9.64-9.53L407,588.9q0-7.46-6-7.45a14.38,14.38,0,0,0-9.53,3.6v-4.8a18.06,18.06,0,0,1,9.93-2.74q10.31,0,10.31,10.9ZM407,592.64l-7.05,1a11.38,11.38,0,0,0-4.91,1.61c-1.11.77-1.66,2.14-1.66,4.1a4.45,4.45,0,0,0,1.53,3.49,5.87,5.87,0,0,0,4.07,1.36,7.55,7.55,0,0,0,5.75-2.44,8.74,8.74,0,0,0,2.27-6.18Z"/><path class="b" d="M445.44,605.08q0,16.09-15.41,16.1a20.69,20.69,0,0,1-9.48-2.06v-4.68a19.42,19.42,0,0,0,9.42,2.74q10.78,0,10.79-11.47v-3.2h-.11a11.82,11.82,0,0,1-18.83,1.7q-3.31-3.9-3.32-10.46,0-7.46,3.58-11.84a12,12,0,0,1,9.8-4.4,9.54,9.54,0,0,1,8.77,4.74h.11v-4h4.68Zm-4.68-10.87V589.9a8.34,8.34,0,0,0-2.36-6,7.74,7.74,0,0,0-5.86-2.48,8.12,8.12,0,0,0-6.79,3.15c-1.64,2.11-2.46,5-2.46,8.84a12.07,12.07,0,0,0,2.36,7.8,7.61,7.61,0,0,0,6.23,2.93,8.12,8.12,0,0,0,6.41-2.8A10.39,10.39,0,0,0,440.76,594.21Z"/><path class="b" d="M478.4,594H457.77c.08,3.25,1,5.76,2.63,7.53a9,9,0,0,0,6.9,2.66,14.38,14.38,0,0,0,9.08-3.26v4.4q-3.86,2.79-10.19,2.8t-9.73-4q-3.54-4-3.54-11.21a16,16,0,0,1,3.86-11.11,12.39,12.39,0,0,1,9.61-4.3q5.73,0,8.88,3.71t3.13,10.3Zm-4.79-4a9.52,9.52,0,0,0-2-6.31,6.65,6.65,0,0,0-5.35-2.25,7.56,7.56,0,0,0-5.62,2.37,10.74,10.74,0,0,0-2.85,6.19Z"/><path class="b" d="M527,607.42H522.3V590.64c0-3.23-.5-5.58-1.5-7s-2.68-2.17-5-2.17a6.23,6.23,0,0,0-5.09,2.74,10.47,10.47,0,0,0-2.1,6.56v16.67h-4.68V590.07q0-8.62-6.65-8.62a6.17,6.17,0,0,0-5.08,2.58,10.72,10.72,0,0,0-2,6.72v16.67h-4.68V578.2h4.68v4.62h.12a9.92,9.92,0,0,1,9.07-5.31,8.51,8.51,0,0,1,5.23,1.67,8.38,8.38,0,0,1,3.05,4.38q3.25-6,9.7-6,9.66,0,9.65,11.9Z"/><path class="b" d="M559.32,594H538.68c.08,3.25,1,5.76,2.63,7.53a9,9,0,0,0,6.9,2.66,14.36,14.36,0,0,0,9.08-3.26v4.4q-3.85,2.79-10.19,2.8t-9.73-4q-3.54-4-3.54-11.21a16,16,0,0,1,3.87-11.11,12.37,12.37,0,0,1,9.6-4.3c3.83,0,6.78,1.24,8.88,3.71s3.14,5.91,3.14,10.3Zm-4.8-4a9.57,9.57,0,0,0-1.95-6.31,6.68,6.68,0,0,0-5.35-2.25,7.57,7.57,0,0,0-5.63,2.37,10.74,10.74,0,0,0-2.85,6.19Z"/><path class="b" d="M590.65,607.42H586V590.75q0-9.3-6.79-9.3a7.37,7.37,0,0,0-5.81,2.64,9.78,9.78,0,0,0-2.29,6.66v16.67H566.4V578.2h4.68v4.85h.11a10.55,10.55,0,0,1,9.59-5.54q4.8,0,7.33,3.1c1.7,2.06,2.54,5,2.54,8.94Z"/><path class="b" d="M613,607.14a9.13,9.13,0,0,1-4.37.91q-7.68,0-7.67-8.56v-17.3h-5v-4h5v-7.14l4.68-1.51v8.65H613v4h-7.36v16.47a6.77,6.77,0,0,0,1,4.19,4,4,0,0,0,3.31,1.26,4.9,4.9,0,0,0,3-1Z"/></svg>