<svg xmlns="http://www.w3.org/2000/svg" xmlns:xlink="http://www.w3.org/1999/xlink" width="1926" height="1082.88" viewBox="0 0 1926 1082.88"><defs><style>.a{fill:url(#a);}.b{opacity:0.6;}.aa,.ab,.ac,.ad,.ae,.af,.ag,.ah,.ai,.aj,.ak,.al,.am,.an,.ao,.ap,.aq,.ar,.as,.at,.au,.av,.aw,.ax,.ay,.az,.ba,.bb,.bc,.bd,.be,.bf,.bg,.bh,.bi,.bj,.bk,.bl,.bm,.bn,.bo,.bp,.bq,.br,.bs,.bt,.bu,.bv,.bw,.bx,.by,.bz,.c,.ca,.cb,.cc,.cd,.ce,.cf,.cg,.ch,.ci,.cj,.cl,.cm,.cn,.co,.cp,.cq,.cr,.cs,.ct,.cu,.cv,.cw,.cx,.cy,.cz,.d,.da,.db,.dc,.dd,.de,.df,.dg,.dh,.di,.dj,.dk,.dl,.dm,.dn,.do,.dp,.dq,.dr,.ds,.dt,.du,.dv,.dw,.dx,.dy,.dz,.e,.ea,.eb,.ec,.ed,.ee,.ef,.eg,.eh,.ei,.ej,.ek,.el,.em,.en,.eo,.ep,.eq,.er,.es,.et,.eu,.ev,.ew,.ex,.ey,.ez,.f,.fa,.fb,.fc,.fd,.fe,.ff,.fg,.fh,.fi,.fj,.fk,.fl,.fm,.fn,.fo,.fp,.fq,.fr,.fs,.ft,.fu,.fv,.fw,.fx,.fy,.fz,.g,.ga,.gb,.gc,.gd,.ge,.gf,.gg,.gh,.gi,.gj,.gk,.gl,.gm,.gn,.go,.gp,.gq,.gr,.gs,.gt,.gu,.gv,.gw,.gx,.gy,.gz,.h,.ha,.hb,.hc,.hd,.he,.hf,.hg,.hh,.hi,.hj,.hk,.hl,.hm,.hn,.ho,.hp,.hq,.hr,.hs,.ht,.hu,.hv,.hw,.hx,.hy,.hz,.i,.ia,.ib,.ic,.id,.ie,.if,.ig,.ih,.ii,.ij,.ik,.il,.im,.in,.io,.ip,.iq,.ir,.is,.it,.iu,.iv,.iw,.ix,.iy,.iz,.j,.ja,.jb,.jc,.jd,.je,.jf,.jg,.jh,.ji,.jj,.jk,.jl,.jm,.jn,.jo,.jp,.jq,.jr,.js,.jt,.ju,.jv,.jw,.jx,.jy,.jz,.k,.ka,.kb,.kc,.kd,.ke,.kf,.kg,.kh,.ki,.kj,.kk,.kl,.km,.kn,.ko,.kp,.l,.m,.n,.o,.p,.q,.r,.s,.t,.u,.v,.w,.x,.y,.z{fill-rule:evenodd;}.c{fill:url(#b);}.d{fill:url(#c);}.e{fill:url(#d);}.f{fill:url(#e);}.g{fill:url(#f);}.h{fill:url(#g);}.i{fill:url(#h);}.j{fill:url(#i);}.k{fill:url(#j);}.l{fill:url(#k);}.m{fill:url(#l);}.n{fill:url(#m);}.o{fill:url(#n);}.p{fill:url(#o);}.q{fill:url(#p);}.r{fill:url(#q);}.s{fill:url(#r);}.t{fill:url(#s);}.u{fill:url(#t);}.v{fill:url(#u);}.w{fill:url(#v);}.x{fill:url(#w);}.y{fill:url(#x);}.z{fill:url(#y);}.aa{fill:url(#z);}.ab{fill:url(#aa);}.ac{fill:url(#ab);}.ad{fill:url(#ac);}.ae{fill:url(#ad);}.af{fill:url(#ae);}.ag{fill:url(#af);}.ah{fill:url(#ag);}.ai{fill:url(#ah);}.aj{fill:url(#ai);}.ak{fill:url(#aj);}.al{fill:url(#ak);}.am{fill:url(#al);}.an{fill:url(#am);}.ao{fill:url(#an);}.ap{fill:url(#ao);}.aq{fill:url(#ap);}.ar{fill:url(#aq);}.as{fill:url(#ar);}.at{fill:url(#as);}.au{fill:url(#at);}.av{fill:url(#au);}.aw{fill:url(#av);}.ax{fill:url(#aw);}.ay{fill:url(#ax);}.az{fill:url(#ay);}.ba{fill:url(#az);}.bb{fill:url(#ba);}.bc{fill:url(#bb);}.bd{fill:url(#bc);}.be{fill:url(#bd);}.bf{fill:url(#be);}.bg{fill:url(#bf);}.bh{fill:url(#bg);}.bi{fill:url(#bh);}.bj{fill:url(#bi);}.bk{fill:url(#bj);}.bl{fill:url(#bk);}.bm{fill:url(#bl);}.bn{fill:url(#bm);}.bo{fill:url(#bn);}.bp{fill:url(#bo);}.bq{fill:url(#bp);}.br{fill:url(#bq);}.bs{fill:url(#br);}.bt{fill:url(#bs);}.bu{fill:url(#bt);}.bv{fill:url(#bu);}.bw{fill:url(#bv);}.bx{fill:url(#bw);}.by{fill:url(#bx);}.bz{fill:url(#by);}.ca{fill:url(#bz);}.cb{fill:url(#ca);}.cc{fill:url(#cb);}.cd{fill:url(#cc);}.ce{fill:url(#cd);}.cf{fill:url(#ce);}.cg{fill:url(#cf);}.ch{fill:url(#cg);}.ci{fill:url(#ch);}.cj{fill:url(#ci);}.ck{fill:url(#cj);}.cl{fill:url(#ck);}.cm{fill:url(#cl);}.cn{fill:url(#cm);}.co{fill:url(#cn);}.cp{fill:url(#co);}.cq{fill:url(#cp);}.cr{fill:url(#cq);}.cs{fill:url(#cr);}.ct{fill:url(#cs);}.cu{fill:url(#ct);}.cv{fill:url(#cu);}.cw{fill:url(#cv);}.cx{fill:url(#cw);}.cy{fill:url(#cx);}.cz{fill:url(#cy);}.da{fill:url(#cz);}.db{fill:url(#da);}.dc{fill:url(#db);}.dd{fill:url(#dc);}.de{fill:url(#dd);}.df{fill:url(#de);}.dg{fill:url(#df);}.dh{fill:url(#dg);}.di{fill:url(#dh);}.dj{fill:url(#di);}.dk{fill:url(#dj);}.dl{fill:url(#dk);}.dm{fill:url(#dl);}.dn{fill:url(#dm);}.do{fill:url(#dn);}.dp{fill:url(#do);}.dq{fill:url(#dp);}.dr{fill:url(#dq);}.ds{fill:url(#dr);}.dt{fill:url(#ds);}.du{fill:url(#dt);}.dv{fill:url(#du);}.dw{fill:url(#dv);}.dx{fill:url(#dw);}.dy{fill:url(#dx);}.dz{fill:url(#dy);}.ea{fill:url(#dz);}.eb{fill:url(#ea);}.ec{fill:url(#eb);}.ed{fill:url(#ec);}.ee{fill:url(#ed);}.ef{fill:url(#ee);}.eg{fill:url(#ef);}.eh{fill:url(#eg);}.ei{fill:url(#eh);}.ej{fill:url(#ei);}.ek{fill:url(#ej);}.el{fill:url(#ek);}.em{fill:url(#el);}.en{fill:url(#em);}.eo{fill:url(#en);}.ep{fill:url(#eo);}.eq{fill:url(#ep);}.er{fill:url(#eq);}.es{fill:url(#er);}.et{fill:url(#es);}.eu{fill:url(#et);}.ev{fill:url(#eu);}.ew{fill:url(#ev);}.ex{fill:url(#ew);}.ey{fill:url(#ex);}.ez{fill:url(#ey);}.fa{fill:url(#ez);}.fb{fill:url(#fa);}.fc{fill:url(#fb);}.fd{fill:url(#fc);}.fe{fill:url(#fd);}.ff{fill:url(#fe);}.fg{fill:url(#ff);}.fh{fill:url(#fg);}.fi{fill:url(#fh);}.fj{fill:url(#fi);}.fk{fill:url(#fj);}.fl{fill:url(#fk);}.fm{fill:url(#fl);}.fn{fill:url(#fm);}.fo{fill:url(#fn);}.fp{fill:url(#fo);}.fq{fill:url(#fp);}.fr{fill:url(#fq);}.fs{fill:url(#fr);}.ft{fill:url(#fs);}.fu{fill:url(#ft);}.fv{fill:url(#fu);}.fw{fill:url(#fv);}.fx{fill:url(#fw);}.fy{fill:url(#fx);}.fz{fill:url(#fy);}.ga{fill:url(#fz);}.gb{fill:url(#ga);}.gc{fill:url(#gb);}.gd{fill:url(#gc);}.ge{fill:url(#gd);}.gf{fill:url(#ge);}.gg{fill:url(#gf);}.gh{fill:url(#gg);}.gi{fill:url(#gh);}.gj{fill:url(#gi);}.gk{fill:url(#gj);}.gl{fill:url(#gk);}.gm{fill:url(#gl);}.gn{fill:url(#gm);}.go{fill:url(#gn);}.gp{fill:url(#go);}.gq{fill:url(#gp);}.gr{fill:url(#gq);}.gs{fill:url(#gr);}.gt{fill:url(#gs);}.gu{fill:url(#gt);}.gv{fill:url(#gu);}.gw{fill:url(#gv);}.gx{fill:url(#gw);}.gy{fill:url(#gx);}.gz{fill:url(#gy);}.ha{fill:url(#gz);}.hb{fill:url(#ha);}.hc{fill:url(#hb);}.hd{fill:url(#hc);}.he{fill:url(#hd);}.hf{fill:url(#he);}.hg{fill:url(#hf);}.hh{fill:url(#hg);}.hi{fill:url(#hh);}.hj{fill:url(#hi);}.hk{fill:url(#hj);}.hl{fill:url(#hk);}.hm{fill:url(#hl);}.hn{fill:url(#hm);}.ho{fill:url(#hn);}.hp{fill:url(#ho);}.hq{fill:url(#hp);}.hr{fill:url(#hq);}.hs{fill:url(#hr);}.ht{fill:url(#hs);}.hu{fill:url(#ht);}.hv{fill:url(#hu);}.hw{fill:url(#hv);}.hx{fill:url(#hw);}.hy{fill:url(#hx);}.hz{fill:url(#hy);}.ia{fill:url(#hz);}.ib{fill:url(#ia);}.ic{fill:url(#ib);}.id{fill:url(#ic);}.ie{fill:url(#id);}.if{fill:url(#ie);}.ig{fill:url(#if);}.ih{fill:url(#ig);}.ii{fill:url(#ih);}.ij{fill:url(#ii);}.ik{fill:url(#ij);}.il{fill:url(#ik);}.im{fill:url(#il);}.in{fill:url(#im);}.io{fill:url(#in);}.ip{fill:url(#io);}.iq{fill:url(#ip);}.ir{fill:url(#iq);}.is{fill:url(#ir);}.it{fill:url(#is);}.iu{fill:url(#it);}.iv{fill:url(#iu);}.iw{fill:url(#iv);}.ix{fill:url(#iw);}.iy{fill:url(#ix);}.iz{fill:url(#iy);}.ja{fill:url(#iz);}.jb{fill:url(#ja);}.jc{fill:url(#jb);}.jd{fill:url(#jc);}.je{fill:url(#jd);}.jf{fill:url(#je);}.jg{fill:url(#jf);}.jh{fill:url(#jg);}.ji{fill:url(#jh);}.jj{fill:url(#ji);}.jk{fill:url(#jj);}.jl{fill:url(#jk);}.jm{fill:url(#jl);}.jn{fill:url(#jm);}.jo{fill:url(#jn);}.jp{fill:url(#jo);}.jq{fill:url(#jp);}.jr{fill:url(#jq);}.js{fill:url(#jr);}.jt{fill:url(#js);}.ju{fill:url(#jt);}.jv{fill:url(#ju);}.jw{fill:url(#jv);}.jx{fill:url(#jw);}.jy{fill:url(#jx);}.jz{fill:url(#jy);}.ka{fill:url(#jz);}.kb{fill:url(#ka);}.kc{fill:url(#kb);}.kd{fill:url(#kc);}.ke{fill:url(#kd);}.kf{fill:url(#ke);}.kg{fill:url(#kf);}.kh{fill:url(#kg);}.ki{fill:url(#kh);}.kj{fill:url(#ki);}.kk{fill:url(#kj);}.kl{fill:url(#kk);}.km{fill:url(#kl);}.kn{fill:url(#km);}.ko{fill:url(#kn);}.kp{fill:url(#ko);}</style><linearGradient id="a" x1="209.5" y1="-209.5" x2="1710.5" y2="1291.5" gradientUnits="userSpaceOnUse"><stop offset="0" stop-color="#db6460"/><stop offset="1" stop-color="#e8bd2f"/></linearGradient><linearGradient id="b" x1="428.43" y1="1036.15" x2="1926" y2="1036.15" gradientUnits="userSpaceOnUse"><stop offset="0" stop-color="#d26857"/><stop offset="0.25" stop-color="#9b4a50"/><stop offset="0.49" stop-color="#6f314b"/><stop offset="0.7" stop-color="#4f2047"/><stop offset="0.87" stop-color="#3b1545"/><stop offset="0.99" stop-color="#341144"/></linearGradient><linearGradient id="c" x1="847.67" y1="759.96" x2="870.04" y2="759.96" xlink:href="#b"/><linearGradient id="d" x1="841.76" y1="786.7" x2="875.96" y2="786.7" xlink:href="#b"/><linearGradient id="e" x1="843.33" y1="865.21" x2="874.38" y2="865.21" xlink:href="#b"/><linearGradient id="f" x1="862.11" y1="889.46" x2="893.17" y2="889.46" xlink:href="#b"/><linearGradient id="g" x1="742.29" y1="918.62" x2="855.61" y2="918.62" xlink:href="#b"/><linearGradient id="h" x1="888.92" y1="852.24" x2="891.92" y2="852.24" xlink:href="#b"/><linearGradient id="i" x1="888.48" y1="844.99" x2="892.37" y2="844.99" xlink:href="#b"/><linearGradient id="j" x1="879.64" y1="852.24" x2="882.64" y2="852.24" xlink:href="#b"/><linearGradient id="k" x1="879.19" y1="844.99" x2="883.08" y2="844.99" xlink:href="#b"/><linearGradient id="l" x1="873.02" y1="828.96" x2="875.88" y2="828.96" xlink:href="#b"/><linearGradient id="m" x1="872.61" y1="807.2" x2="875.48" y2="807.2" xlink:href="#b"/><linearGradient id="n" x1="841.83" y1="828.96" x2="844.7" y2="828.96" xlink:href="#b"/><linearGradient id="o" x1="842.23" y1="807.2" x2="845.1" y2="807.2" xlink:href="#b"/><linearGradient id="p" x1="858.6" y1="719.4" x2="859.13" y2="719.4" xlink:href="#b"/><linearGradient id="q" x1="856.92" y1="712.63" x2="860.81" y2="712.63" xlink:href="#b"/><linearGradient id="r" x1="1012.89" y1="849.48" x2="1146.32" y2="849.48" xlink:href="#b"/><linearGradient id="s" x1="1042.68" y1="692.03" x2="1116.53" y2="692.03" xlink:href="#b"/><linearGradient id="t" x1="1040.9" y1="679.7" x2="1118.33" y2="679.7" xlink:href="#b"/><linearGradient id="u" x1="1053.72" y1="678.46" x2="1058.8" y2="678.46" xlink:href="#b"/><linearGradient id="v" x1="1062.07" y1="678.72" x2="1064.61" y2="678.72" xlink:href="#b"/><linearGradient id="w" x1="1102.9" y1="677.81" x2="1110.88" y2="677.81" xlink:href="#b"/><linearGradient id="x" x1="1099.08" y1="678.63" x2="1105.25" y2="678.63" xlink:href="#b"/><linearGradient id="y" x1="1143.01" y1="699.07" x2="1147.9" y2="699.07" xlink:href="#b"/><linearGradient id="z" x1="1143.01" y1="710.22" x2="1147.9" y2="710.22" xlink:href="#b"/><linearGradient id="aa" x1="1143.01" y1="721.37" x2="1147.9" y2="721.37" xlink:href="#b"/><linearGradient id="ab" x1="1143.01" y1="732.53" x2="1147.9" y2="732.53" xlink:href="#b"/><linearGradient id="ac" x1="1143.01" y1="743.69" x2="1147.9" y2="743.69" xlink:href="#b"/><linearGradient id="ad" x1="1143.01" y1="754.83" x2="1147.9" y2="754.83" xlink:href="#b"/><linearGradient id="ae" x1="1143.01" y1="765.99" x2="1147.9" y2="765.99" xlink:href="#b"/><linearGradient id="af" x1="1143.01" y1="777.15" x2="1147.9" y2="777.15" xlink:href="#b"/><linearGradient id="ag" x1="1143.01" y1="788.3" x2="1147.9" y2="788.3" xlink:href="#b"/><linearGradient id="ah" x1="1143.01" y1="799.45" x2="1147.9" y2="799.45" xlink:href="#b"/><linearGradient id="ai" x1="1143.01" y1="810.61" x2="1147.9" y2="810.61" xlink:href="#b"/><linearGradient id="aj" x1="1143.01" y1="821.76" x2="1147.9" y2="821.76" xlink:href="#b"/><linearGradient id="ak" x1="1143.01" y1="832.91" x2="1147.9" y2="832.91" xlink:href="#b"/><linearGradient id="al" x1="1143.01" y1="844.07" x2="1147.9" y2="844.07" xlink:href="#b"/><linearGradient id="am" x1="1143.01" y1="855.22" x2="1147.9" y2="855.22" xlink:href="#b"/><linearGradient id="an" x1="1143.01" y1="866.37" x2="1147.9" y2="866.37" xlink:href="#b"/><linearGradient id="ao" x1="1143.01" y1="877.53" x2="1147.9" y2="877.53" xlink:href="#b"/><linearGradient id="ap" x1="1143.01" y1="888.68" x2="1147.9" y2="888.68" xlink:href="#b"/><linearGradient id="aq" x1="1143.01" y1="899.83" x2="1147.9" y2="899.83" xlink:href="#b"/><linearGradient id="ar" x1="1143.01" y1="910.99" x2="1147.9" y2="910.99" xlink:href="#b"/><linearGradient id="as" x1="1143.01" y1="922.14" x2="1147.9" y2="922.14" xlink:href="#b"/><linearGradient id="at" x1="1143.01" y1="933.3" x2="1147.9" y2="933.3" xlink:href="#b"/><linearGradient id="au" x1="1143.01" y1="944.45" x2="1147.9" y2="944.45" xlink:href="#b"/><linearGradient id="av" x1="1143.01" y1="955.6" x2="1147.9" y2="955.6" xlink:href="#b"/><linearGradient id="aw" x1="1143.01" y1="966.75" x2="1147.9" y2="966.75" xlink:href="#b"/><linearGradient id="ax" x1="1143.01" y1="977.91" x2="1147.9" y2="977.91" xlink:href="#b"/><linearGradient id="ay" x1="1143.01" y1="989.06" x2="1147.9" y2="989.06" xlink:href="#b"/><linearGradient id="az" x1="1011.31" y1="699.07" x2="1016.2" y2="699.07" xlink:href="#b"/><linearGradient id="ba" x1="1011.31" y1="710.22" x2="1016.2" y2="710.22" xlink:href="#b"/><linearGradient id="bb" x1="1011.31" y1="721.37" x2="1016.2" y2="721.37" xlink:href="#b"/><linearGradient id="bc" x1="1011.31" y1="732.53" x2="1016.2" y2="732.53" xlink:href="#b"/><linearGradient id="bd" x1="1011.31" y1="743.69" x2="1016.2" y2="743.69" xlink:href="#b"/><linearGradient id="be" x1="1011.31" y1="754.83" x2="1016.2" y2="754.83" xlink:href="#b"/><linearGradient id="bf" x1="1011.31" y1="765.99" x2="1016.2" y2="765.99" xlink:href="#b"/><linearGradient id="bg" x1="1011.31" y1="777.15" x2="1016.2" y2="777.15" xlink:href="#b"/><linearGradient id="bh" x1="1011.31" y1="788.3" x2="1016.2" y2="788.3" xlink:href="#b"/><linearGradient id="bi" x1="1011.31" y1="799.45" x2="1016.2" y2="799.45" xlink:href="#b"/><linearGradient id="bj" x1="1011.31" y1="810.61" x2="1016.2" y2="810.61" xlink:href="#b"/><linearGradient id="bk" x1="1011.31" y1="821.76" x2="1016.2" y2="821.76" xlink:href="#b"/><linearGradient id="bl" x1="1011.31" y1="832.91" x2="1016.2" y2="832.91" xlink:href="#b"/><linearGradient id="bm" x1="1011.31" y1="844.07" x2="1016.2" y2="844.07" xlink:href="#b"/><linearGradient id="bn" x1="1011.31" y1="855.22" x2="1016.2" y2="855.22" xlink:href="#b"/><linearGradient id="bo" x1="1011.31" y1="866.37" x2="1016.2" y2="866.37" xlink:href="#b"/><linearGradient id="bp" x1="1011.31" y1="877.53" x2="1016.2" y2="877.53" xlink:href="#b"/><linearGradient id="bq" x1="1011.31" y1="888.68" x2="1016.2" y2="888.68" xlink:href="#b"/><linearGradient id="br" x1="1011.31" y1="899.83" x2="1016.2" y2="899.83" xlink:href="#b"/><linearGradient id="bs" x1="1011.31" y1="910.99" x2="1016.2" y2="910.99" xlink:href="#b"/><linearGradient id="bt" x1="1011.31" y1="922.14" x2="1016.2" y2="922.14" xlink:href="#b"/><linearGradient id="bu" x1="1011.31" y1="933.3" x2="1016.2" y2="933.3" xlink:href="#b"/><linearGradient id="bv" x1="1011.31" y1="944.45" x2="1016.2" y2="944.45" xlink:href="#b"/><linearGradient id="bw" x1="1011.31" y1="955.6" x2="1016.2" y2="955.6" xlink:href="#b"/><linearGradient id="bx" x1="1011.31" y1="966.75" x2="1016.2" y2="966.75" xlink:href="#b"/><linearGradient id="by" x1="1011.31" y1="977.91" x2="1016.2" y2="977.91" xlink:href="#b"/><linearGradient id="bz" x1="1011.31" y1="989.06" x2="1016.2" y2="989.06" xlink:href="#b"/><linearGradient id="ca" x1="1292.91" y1="967.52" x2="1384.72" y2="967.52" xlink:href="#b"/><linearGradient id="cb" x1="1336.88" y1="926.09" x2="1385.38" y2="926.09" xlink:href="#b"/><linearGradient id="cc" x1="1334.88" y1="910.97" x2="1340.03" y2="910.97" xlink:href="#b"/><linearGradient id="cd" x1="1334.88" y1="919.6" x2="1340.03" y2="919.6" xlink:href="#b"/><linearGradient id="ce" x1="1334.88" y1="928.23" x2="1340.03" y2="928.23" xlink:href="#b"/><linearGradient id="cf" x1="1341.42" y1="905.43" x2="1372.41" y2="905.43" xlink:href="#b"/><linearGradient id="cg" x1="1356.75" y1="902.36" x2="1371.37" y2="902.36" xlink:href="#b"/><linearGradient id="ch" x1="1359.69" y1="898.96" x2="1363.47" y2="898.96" xlink:href="#b"/><linearGradient id="ci" x1="1305.35" y1="931.34" x2="1328.83" y2="931.34" xlink:href="#b"/><linearGradient id="cj" x1="945.78" y1="775.54" x2="954.21" y2="775.54" xlink:href="#b"/><linearGradient id="ck" x1="945.02" y1="791.28" x2="957" y2="791.28" xlink:href="#b"/><linearGradient id="cl" x1="945.12" y1="791.97" x2="947.58" y2="791.97" xlink:href="#b"/><linearGradient id="cm" x1="954.32" y1="791.97" x2="956.77" y2="791.97" xlink:href="#b"/><linearGradient id="cn" x1="947.75" y1="785.68" x2="954.26" y2="785.68" xlink:href="#b"/><linearGradient id="co" x1="945.65" y1="790.98" x2="956.35" y2="790.98" xlink:href="#b"/><linearGradient id="cp" x1="947.33" y1="788.23" x2="954.68" y2="788.23" xlink:href="#b"/><linearGradient id="cq" x1="946.52" y1="788.39" x2="947.31" y2="788.39" xlink:href="#b"/><linearGradient id="cr" x1="946.68" y1="789.54" x2="947.15" y2="789.54" xlink:href="#b"/><linearGradient id="cs" x1="945.79" y1="789.12" x2="946.57" y2="789.12" xlink:href="#b"/><linearGradient id="ct" x1="945.94" y1="790.28" x2="946.42" y2="790.28" xlink:href="#b"/><linearGradient id="cu" x1="954.69" y1="788.39" x2="955.48" y2="788.39" xlink:href="#b"/><linearGradient id="cv" x1="954.85" y1="789.54" x2="955.34" y2="789.54" xlink:href="#b"/><linearGradient id="cw" x1="955.43" y1="789.12" x2="956.22" y2="789.12" xlink:href="#b"/><linearGradient id="cx" x1="955.58" y1="790.28" x2="956.06" y2="790.28" xlink:href="#b"/><linearGradient id="cy" x1="946.1" y1="797.41" x2="955.9" y2="797.41" xlink:href="#b"/><linearGradient id="cz" x1="945.25" y1="803.34" x2="948.51" y2="803.34" xlink:href="#b"/><linearGradient id="da" x1="945.61" y1="803.68" x2="947.8" y2="803.68" xlink:href="#b"/><linearGradient id="db" x1="953.49" y1="803.34" x2="956.76" y2="803.34" xlink:href="#b"/><linearGradient id="dc" x1="954.2" y1="803.68" x2="956.41" y2="803.68" xlink:href="#b"/><linearGradient id="dd" x1="945.81" y1="804.68" x2="956.19" y2="804.68" xlink:href="#b"/><linearGradient id="de" x1="941.69" y1="807.76" x2="960.31" y2="807.76" xlink:href="#b"/><linearGradient id="df" x1="940.62" y1="810.97" x2="961.38" y2="810.97" xlink:href="#b"/><linearGradient id="dg" x1="939.63" y1="814.18" x2="962.37" y2="814.18" xlink:href="#b"/><linearGradient id="dh" x1="921.04" y1="843.83" x2="980.96" y2="843.83" xlink:href="#b"/><linearGradient id="di" x1="911.25" y1="861.54" x2="990.77" y2="861.54" xlink:href="#b"/><linearGradient id="dj" x1="915.74" y1="857.49" x2="920.64" y2="857.49" xlink:href="#b"/><linearGradient id="dk" x1="915.33" y1="859.82" x2="920.65" y2="859.82" xlink:href="#b"/><linearGradient id="dl" x1="918.43" y1="854.68" x2="920.91" y2="854.68" xlink:href="#b"/><linearGradient id="dm" x1="918.18" y1="855.82" x2="920.09" y2="855.82" xlink:href="#b"/><linearGradient id="dn" x1="919.84" y1="854.14" x2="925.52" y2="854.14" xlink:href="#b"/><linearGradient id="do" x1="919.41" y1="848.16" x2="920.55" y2="848.16" xlink:href="#b"/><linearGradient id="dp" x1="919.17" y1="844.9" x2="922.01" y2="844.9" xlink:href="#b"/><linearGradient id="dq" x1="918.89" y1="846.23" x2="920.23" y2="846.23" xlink:href="#b"/><linearGradient id="dr" x1="919.38" y1="847.12" x2="920.35" y2="847.12" xlink:href="#b"/><linearGradient id="ds" x1="912.6" y1="864.28" x2="919.01" y2="864.28" xlink:href="#b"/><linearGradient id="dt" x1="911.58" y1="862.62" x2="917.49" y2="862.62" xlink:href="#b"/><linearGradient id="du" x1="981.37" y1="857.49" x2="986.26" y2="857.49" xlink:href="#b"/><linearGradient id="dv" x1="981.35" y1="859.82" x2="986.68" y2="859.82" xlink:href="#b"/><linearGradient id="dw" x1="981.1" y1="854.68" x2="983.57" y2="854.68" xlink:href="#b"/><linearGradient id="dx" x1="981.91" y1="855.82" x2="983.83" y2="855.82" xlink:href="#b"/><linearGradient id="dy" x1="976.48" y1="854.14" x2="982.18" y2="854.14" xlink:href="#b"/><linearGradient id="dz" x1="981.45" y1="848.16" x2="982.59" y2="848.16" xlink:href="#b"/><linearGradient id="ea" x1="979.99" y1="844.9" x2="982.83" y2="844.9" xlink:href="#b"/><linearGradient id="eb" x1="981.79" y1="846.23" x2="983.13" y2="846.23" xlink:href="#b"/><linearGradient id="ec" x1="981.65" y1="847.12" x2="982.62" y2="847.12" xlink:href="#b"/><linearGradient id="ed" x1="982.99" y1="864.28" x2="989.4" y2="864.28" xlink:href="#b"/><linearGradient id="ee" x1="984.51" y1="862.62" x2="990.42" y2="862.62" xlink:href="#b"/><linearGradient id="ef" x1="914.41" y1="893.57" x2="987.59" y2="893.57" xlink:href="#b"/><linearGradient id="eg" x1="913.78" y1="868.02" x2="915.64" y2="868.02" xlink:href="#b"/><linearGradient id="eh" x1="914.01" y1="870.88" x2="914.85" y2="870.88" xlink:href="#b"/><linearGradient id="ei" x1="914.17" y1="872.09" x2="915" y2="872.09" xlink:href="#b"/><linearGradient id="ej" x1="914.17" y1="897.28" x2="915.01" y2="897.28" xlink:href="#b"/><linearGradient id="ek" x1="914.21" y1="898.32" x2="914.73" y2="898.32" xlink:href="#b"/><linearGradient id="el" x1="986.36" y1="868.02" x2="988.22" y2="868.02" xlink:href="#b"/><linearGradient id="em" x1="987.16" y1="870.88" x2="987.99" y2="870.88" xlink:href="#b"/><linearGradient id="en" x1="987" y1="872.09" x2="987.85" y2="872.09" xlink:href="#b"/><linearGradient id="eo" x1="987" y1="897.28" x2="987.83" y2="897.28" xlink:href="#b"/><linearGradient id="ep" x1="987.27" y1="898.32" x2="987.81" y2="898.32" xlink:href="#b"/><linearGradient id="eq" x1="801.88" y1="959.66" x2="1100.12" y2="959.66" xlink:href="#b"/><linearGradient id="er" x1="966.5" y1="913.77" x2="1013.92" y2="913.77" xlink:href="#b"/><linearGradient id="es" x1="1011.83" y1="904.2" x2="1014.74" y2="904.2" xlink:href="#b"/><linearGradient id="et" x1="1010.64" y1="909.01" x2="1020.03" y2="909.01" xlink:href="#b"/><linearGradient id="eu" x1="1013.21" y1="909.6" x2="1019.19" y2="909.6" xlink:href="#b"/><linearGradient id="ev" x1="1013.37" y1="910.85" x2="1018.81" y2="910.85" xlink:href="#b"/><linearGradient id="ew" x1="1012.21" y1="916.6" x2="1105.84" y2="916.6" xlink:href="#b"/><linearGradient id="ex" x1="1095.24" y1="922.09" x2="1104.97" y2="922.09" xlink:href="#b"/><linearGradient id="ey" x1="1099.41" y1="926.5" x2="1104.3" y2="926.5" xlink:href="#b"/><linearGradient id="ez" x1="1098.54" y1="930.05" x2="1100.81" y2="930.05" xlink:href="#b"/><linearGradient id="fa" x1="1099.74" y1="929.86" x2="1101.44" y2="929.86" xlink:href="#b"/><linearGradient id="fb" x1="1099.67" y1="932" x2="1102.09" y2="932" xlink:href="#b"/><linearGradient id="fc" x1="1099.59" y1="933.93" x2="1101.86" y2="933.93" xlink:href="#b"/><linearGradient id="fd" x1="1100.24" y1="934.58" x2="1101.98" y2="934.58" xlink:href="#b"/><linearGradient id="fe" x1="1100.16" y1="934.37" x2="1101.46" y2="934.37" xlink:href="#b"/><linearGradient id="ff" x1="1099.39" y1="938.45" x2="1101.18" y2="938.45" xlink:href="#b"/><linearGradient id="fg" x1="1100.69" y1="936.13" x2="1101.66" y2="936.13" xlink:href="#b"/><linearGradient id="fh" x1="1100.51" y1="937.72" x2="1101.55" y2="937.72" xlink:href="#b"/><linearGradient id="fi" x1="1097.17" y1="912.09" x2="1102.39" y2="912.09" xlink:href="#b"/><linearGradient id="fj" x1="1097.78" y1="910.75" x2="1101.24" y2="910.75" xlink:href="#b"/><linearGradient id="fk" x1="1097.4" y1="908.28" x2="1101.63" y2="908.28" xlink:href="#b"/><linearGradient id="fl" x1="1097.78" y1="906.3" x2="1101.24" y2="906.3" xlink:href="#b"/><linearGradient id="fm" x1="1097.41" y1="903.86" x2="1098.44" y2="903.86" xlink:href="#b"/><linearGradient id="fn" x1="1097.54" y1="905.97" x2="1098.31" y2="905.97" xlink:href="#b"/><linearGradient id="fo" x1="1100.6" y1="903.86" x2="1101.62" y2="903.86" xlink:href="#b"/><linearGradient id="fp" x1="1100.73" y1="905.97" x2="1101.48" y2="905.97" xlink:href="#b"/><linearGradient id="fq" x1="992.39" y1="902.53" x2="1002.59" y2="902.53" xlink:href="#b"/><linearGradient id="fr" x1="888.08" y1="913.77" x2="935.5" y2="913.77" xlink:href="#b"/><linearGradient id="fs" x1="887.27" y1="904.2" x2="890.17" y2="904.2" xlink:href="#b"/><linearGradient id="ft" x1="881.97" y1="909.01" x2="891.37" y2="909.01" xlink:href="#b"/><linearGradient id="fu" x1="882.81" y1="909.6" x2="888.79" y2="909.6" xlink:href="#b"/><linearGradient id="fv" x1="883.19" y1="910.85" x2="888.63" y2="910.85" xlink:href="#b"/><linearGradient id="fw" x1="796.18" y1="916.6" x2="889.79" y2="916.6" xlink:href="#b"/><linearGradient id="fx" x1="797.05" y1="922.09" x2="806.76" y2="922.09" xlink:href="#b"/><linearGradient id="fy" x1="797.7" y1="926.5" x2="802.6" y2="926.5" xlink:href="#b"/><linearGradient id="fz" x1="801.19" y1="930.05" x2="803.47" y2="930.05" xlink:href="#b"/><linearGradient id="ga" x1="800.56" y1="929.86" x2="802.26" y2="929.86" xlink:href="#b"/><linearGradient id="gb" x1="799.93" y1="932" x2="802.33" y2="932" xlink:href="#b"/><linearGradient id="gc" x1="800.14" y1="933.93" x2="802.41" y2="933.93" xlink:href="#b"/><linearGradient id="gd" x1="800.02" y1="934.58" x2="801.76" y2="934.58" xlink:href="#b"/><linearGradient id="ge" x1="800.54" y1="934.37" x2="801.84" y2="934.37" xlink:href="#b"/><linearGradient id="gf" x1="800.84" y1="938.45" x2="802.61" y2="938.45" xlink:href="#b"/><linearGradient id="gg" x1="800.36" y1="936.13" x2="801.32" y2="936.13" xlink:href="#b"/><linearGradient id="gh" x1="800.45" y1="937.72" x2="801.5" y2="937.72" xlink:href="#b"/><linearGradient id="gi" x1="799.62" y1="912.09" x2="804.83" y2="912.09" xlink:href="#b"/><linearGradient id="gj" x1="800.76" y1="910.75" x2="804.22" y2="910.75" xlink:href="#b"/><linearGradient id="gk" x1="800.37" y1="908.28" x2="804.6" y2="908.28" xlink:href="#b"/><linearGradient id="gl" x1="800.76" y1="906.3" x2="804.22" y2="906.3" xlink:href="#b"/><linearGradient id="gm" x1="803.57" y1="903.86" x2="804.59" y2="903.86" xlink:href="#b"/><linearGradient id="gn" x1="803.71" y1="905.97" x2="804.46" y2="905.97" xlink:href="#b"/><linearGradient id="go" x1="800.38" y1="903.86" x2="801.42" y2="903.86" xlink:href="#b"/><linearGradient id="gp" x1="800.52" y1="905.97" x2="801.28" y2="905.97" xlink:href="#b"/><linearGradient id="gq" x1="899.41" y1="902.53" x2="909.61" y2="902.53" xlink:href="#b"/><linearGradient id="gr" x1="881.07" y1="905.73" x2="888.09" y2="905.73" xlink:href="#b"/><linearGradient id="gs" x1="885.29" y1="895.93" x2="1016.71" y2="895.93" xlink:href="#b"/><linearGradient id="gt" x1="902.28" y1="895.84" x2="902.71" y2="895.84" xlink:href="#b"/><linearGradient id="gu" x1="902.04" y1="874.25" x2="903.02" y2="874.25" xlink:href="#b"/><linearGradient id="gv" x1="902.56" y1="881.37" x2="909" y2="881.37" xlink:href="#b"/><linearGradient id="gw" x1="1697.02" y1="950.7" x2="1792.27" y2="950.7" xlink:href="#b"/><linearGradient id="gx" x1="1725.3" y1="895.4" x2="1764" y2="895.4" xlink:href="#b"/><linearGradient id="gy" x1="1743.43" y1="888.76" x2="1747.95" y2="888.76" xlink:href="#b"/><linearGradient id="gz" x1="1745.13" y1="887.81" x2="1746.57" y2="887.81" xlink:href="#b"/><linearGradient id="ha" x1="1743.74" y1="884.53" x2="1744.27" y2="884.53" xlink:href="#b"/><linearGradient id="hb" x1="1739.54" y1="887.94" x2="1739.97" y2="887.94" xlink:href="#b"/><linearGradient id="hc" x1="1790.39" y1="913.34" x2="1839.94" y2="913.34" xlink:href="#b"/><linearGradient id="hd" x1="1783.54" y1="929.47" x2="1862.87" y2="929.47" xlink:href="#b"/><linearGradient id="he" x1="1775.24" y1="959.3" x2="1864.99" y2="959.3" xlink:href="#b"/><linearGradient id="hf" x1="1860.7" y1="929.3" x2="1866.1" y2="929.3" xlink:href="#b"/><linearGradient id="hg" x1="1860.7" y1="938.17" x2="1866.1" y2="938.17" xlink:href="#b"/><linearGradient id="hh" x1="556.26" y1="877.46" x2="667.9" y2="877.46" xlink:href="#b"/><linearGradient id="hi" x1="612.64" y1="884.68" x2="682.95" y2="884.68" xlink:href="#b"/><linearGradient id="hj" x1="627.5" y1="916.27" x2="697.82" y2="916.27" xlink:href="#b"/><linearGradient id="hk" x1="638.01" y1="934.6" x2="708.32" y2="934.6" xlink:href="#b"/><linearGradient id="hl" x1="544.86" y1="840.02" x2="563.71" y2="840.02" xlink:href="#b"/><linearGradient id="hm" x1="535.68" y1="861.15" x2="566.97" y2="861.15" xlink:href="#b"/><linearGradient id="hn" x1="526.5" y1="867.86" x2="545.34" y2="867.86" xlink:href="#b"/><linearGradient id="ho" x1="517.31" y1="932.43" x2="660.12" y2="932.43" xlink:href="#b"/><linearGradient id="hp" x1="1244.5" y1="870.94" x2="1327.33" y2="870.94" xlink:href="#b"/><linearGradient id="hq" x1="1258.04" y1="742.06" x2="1321.59" y2="742.06" xlink:href="#b"/><linearGradient id="hr" x1="1282.27" y1="721.27" x2="1317.81" y2="721.27" xlink:href="#b"/><linearGradient id="hs" x1="1293.81" y1="710.57" x2="1309.89" y2="710.57" xlink:href="#b"/><linearGradient id="ht" x1="1297.64" y1="708.81" x2="1307.69" y2="708.81" xlink:href="#b"/><linearGradient id="hu" x1="1251.71" y1="741.25" x2="1259.61" y2="741.25" xlink:href="#b"/><linearGradient id="hv" x1="1249.4" y1="745.1" x2="1253.11" y2="745.1" xlink:href="#b"/><linearGradient id="hw" x1="1279.2" y1="723.82" x2="1284.3" y2="723.82" xlink:href="#b"/><linearGradient id="hx" x1="1273.4" y1="723.32" x2="1280.5" y2="723.32" xlink:href="#b"/><linearGradient id="hy" x1="1260" y1="722.87" x2="1275.3" y2="722.87" xlink:href="#b"/><linearGradient id="hz" x1="1258.9" y1="723.77" x2="1262.51" y2="723.77" xlink:href="#b"/><linearGradient id="ia" x1="1284.7" y1="710.7" x2="1290.9" y2="710.7" xlink:href="#b"/><linearGradient id="ib" x1="771.93" y1="733.42" x2="828.88" y2="733.42" xlink:href="#b"/><linearGradient id="ic" x1="702.82" y1="733.42" x2="759.77" y2="733.42" xlink:href="#b"/><linearGradient id="id" x1="754.26" y1="742.8" x2="777.44" y2="742.8" xlink:href="#b"/><linearGradient id="ie" x1="1156.04" y1="910.3" x2="1259.26" y2="910.3" xlink:href="#b"/><linearGradient id="if" x1="1158.73" y1="867.08" x2="1256.57" y2="867.08" xlink:href="#b"/><linearGradient id="ig" x1="1161.81" y1="855.55" x2="1253.49" y2="855.55" xlink:href="#b"/><linearGradient id="ih" x1="1166.05" y1="839.91" x2="1249.25" y2="839.91" xlink:href="#b"/><linearGradient id="ii" x1="1168.37" y1="818.09" x2="1246.93" y2="818.09" xlink:href="#b"/><linearGradient id="ij" x1="1173.86" y1="802.92" x2="1241.45" y2="802.92" xlink:href="#b"/><linearGradient id="ik" x1="1175.35" y1="709.53" x2="1239.95" y2="709.53" xlink:href="#b"/><linearGradient id="il" x1="1199.09" y1="685.7" x2="1216.21" y2="685.7" xlink:href="#b"/><linearGradient id="im" x1="1207.15" y1="640.62" x2="1208.15" y2="640.62" xlink:href="#b"/><linearGradient id="in" x1="1204.48" y1="645.58" x2="1210.83" y2="645.58" xlink:href="#b"/><linearGradient id="io" x1="1205.23" y1="653.36" x2="1210.07" y2="653.36" xlink:href="#b"/><linearGradient id="ip" x1="1203.21" y1="670.93" x2="1211.5" y2="670.93" xlink:href="#b"/><linearGradient id="iq" x1="1212.25" y1="670.93" x2="1213.54" y2="670.93" xlink:href="#b"/><linearGradient id="ir" x1="1210.43" y1="672.49" x2="1213" y2="672.49" xlink:href="#b"/><linearGradient id="is" x1="1575.2" y1="805.56" x2="1701.5" y2="805.56" xlink:href="#b"/><linearGradient id="it" x1="1648.85" y1="612.81" x2="1656.49" y2="612.81" xlink:href="#b"/><linearGradient id="iu" x1="1652.41" y1="613.66" x2="1680.42" y2="613.66" xlink:href="#b"/><linearGradient id="iv" x1="1676.35" y1="612.47" x2="1684.67" y2="612.47" xlink:href="#b"/><linearGradient id="iw" x1="1670.24" y1="608.72" x2="1674.82" y2="608.72" xlink:href="#b"/><linearGradient id="ix" x1="1654.27" y1="608.89" x2="1659.38" y2="608.89" xlink:href="#b"/><linearGradient id="iy" x1="1657.68" y1="610.85" x2="1658.7" y2="610.85" xlink:href="#b"/><linearGradient id="iz" x1="1661.93" y1="610.25" x2="1668.04" y2="610.25" xlink:href="#b"/><linearGradient id="ja" x1="1682.97" y1="608.04" x2="1686.02" y2="608.04" xlink:href="#b"/><linearGradient id="jb" x1="1679.74" y1="602.76" x2="1680.19" y2="602.76" xlink:href="#b"/><linearGradient id="jc" x1="1677.08" y1="606.71" x2="1680.37" y2="606.71" xlink:href="#b"/><linearGradient id="jd" x1="1676.27" y1="608.59" x2="1678.52" y2="608.59" xlink:href="#b"/><linearGradient id="je" x1="1668.55" y1="604.34" x2="1672.12" y2="604.34" xlink:href="#b"/><linearGradient id="jf" x1="1681.69" y1="609.69" x2="1684.17" y2="609.69" xlink:href="#b"/><linearGradient id="jg" x1="1601.82" y1="609.58" x2="1602.67" y2="609.58" xlink:href="#b"/><linearGradient id="jh" x1="1604.2" y1="613.99" x2="1608.62" y2="613.99" xlink:href="#b"/><linearGradient id="ji" x1="1596.73" y1="612.38" x2="1597.58" y2="612.38" xlink:href="#b"/><linearGradient id="jj" x1="1588.76" y1="614.76" x2="1597.24" y2="614.76" xlink:href="#b"/><linearGradient id="jk" x1="467.64" y1="951.68" x2="680.81" y2="951.68" xlink:href="#b"/><linearGradient id="jl" x1="455.14" y1="981.33" x2="693.12" y2="981.33" xlink:href="#b"/><linearGradient id="jm" x1="455.14" y1="956.38" x2="495.55" y2="956.38" xlink:href="#b"/><linearGradient id="jn" x1="460.56" y1="952.65" x2="476.01" y2="952.65" xlink:href="#b"/><linearGradient id="jo" x1="651.77" y1="953.17" x2="692.17" y2="953.17" xlink:href="#b"/><linearGradient id="jp" x1="1481.11" y1="910.45" x2="1597.21" y2="910.45" xlink:href="#b"/><linearGradient id="jq" x1="1510.54" y1="812.01" x2="1567.79" y2="812.01" xlink:href="#b"/><linearGradient id="jr" x1="1524.4" y1="802.89" x2="1525.28" y2="802.89" xlink:href="#b"/><linearGradient id="js" x1="1529.22" y1="803.78" x2="1534.59" y2="803.78" xlink:href="#b"/><linearGradient id="jt" x1="1539.07" y1="804.4" x2="1540.85" y2="804.4" xlink:href="#b"/><linearGradient id="ju" x1="1549.08" y1="803.06" x2="1549.8" y2="803.06" xlink:href="#b"/><linearGradient id="jv" x1="1554.09" y1="804.23" x2="1559.81" y2="804.23" xlink:href="#b"/><linearGradient id="jw" x1="1374.66" y1="847.94" x2="1472.9" y2="847.94" xlink:href="#b"/><linearGradient id="jx" x1="1407.03" y1="689.95" x2="1440.51" y2="689.95" xlink:href="#b"/><linearGradient id="jy" x1="1447.81" y1="691.64" x2="1448.87" y2="691.64" xlink:href="#b"/><linearGradient id="jz" x1="1459.83" y1="691.64" x2="1460.88" y2="691.64" xlink:href="#b"/><linearGradient id="ka" x1="1471.84" y1="691.64" x2="1472.9" y2="691.64" xlink:href="#b"/><linearGradient id="kb" x1="1433.77" y1="684.89" x2="1437.57" y2="684.89" xlink:href="#b"/><linearGradient id="kc" x1="1429.44" y1="685.55" x2="1435.08" y2="685.55" xlink:href="#b"/><linearGradient id="kd" x1="1434.29" y1="683.51" x2="1436.66" y2="683.51" xlink:href="#b"/><linearGradient id="ke" x1="1409.1" y1="685.28" x2="1413.42" y2="685.28" xlink:href="#b"/><linearGradient id="kf" x1="1838.12" y1="998.36" x2="1914.46" y2="998.36" xlink:href="#b"/><linearGradient id="kg" x1="1840.95" y1="985.5" x2="1881.24" y2="985.5" xlink:href="#b"/><linearGradient id="kh" x1="1876.91" y1="956.65" x2="1882.69" y2="956.65" xlink:href="#b"/><linearGradient id="ki" x1="1876.91" y1="963.38" x2="1882.69" y2="963.38" xlink:href="#b"/><linearGradient id="kj" x1="1876.91" y1="970.1" x2="1882.69" y2="970.1" xlink:href="#b"/><linearGradient id="kk" x1="1876.91" y1="976.82" x2="1882.69" y2="976.82" xlink:href="#b"/><linearGradient id="kl" x1="1876.91" y1="983.54" x2="1882.69" y2="983.54" xlink:href="#b"/><linearGradient id="km" x1="1892.3" y1="981.45" x2="1905.71" y2="981.45" xlink:href="#b"/><linearGradient id="kn" x1="1844.75" y1="953.75" x2="1874.72" y2="953.75" xlink:href="#b"/><linearGradient id="ko" x1="1846.13" y1="950.45" x2="1846.6" y2="950.45" xlink:href="#b"/></defs><title>Asset 4</title><rect class="a" width="1920" height="1082" transform="translate(1920 1082) rotate(180)"/><g class="b"><polygon class="c" points="428.43 989.42 1926 989.42 1926 1082.88 428.43 1082.88 428.43 989.42 428.43 989.42"/><polygon class="d" points="858.86 722.14 864.45 759.96 870.04 797.78 858.86 797.78 847.67 797.78 853.26 759.96 858.86 722.14 858.86 722.14"/><polygon class="e" points="858.86 768.91 867.41 786.71 875.96 804.49 858.86 804.49 841.76 804.49 850.31 786.71 858.86 768.91 858.86 768.91"/><polygon class="f" points="874.38 802.75 843.33 802.75 843.33 927.67 874.38 927.67 874.38 802.75 874.38 802.75"/><polygon class="g" points="893.17 851.26 862.11 851.26 862.11 927.67 893.17 927.67 893.17 851.26 893.17 851.26"/><polygon class="h" points="855.61 833.46 757.61 833.46 742.29 875.92 742.29 1003.78 757.61 1003.78 855.61 1003.78 855.61 875.92 855.61 833.46 855.61 833.46"/><polygon class="i" points="891.92 847.89 888.92 847.89 888.92 856.59 891.92 856.59 891.92 847.89 891.92 847.89"/><polygon class="j" points="890.42 841.09 891.39 844.99 892.37 848.89 890.42 848.89 888.48 848.89 889.45 844.99 890.42 841.09 890.42 841.09"/><polygon class="k" points="882.64 847.89 879.64 847.89 879.64 856.59 882.64 856.59 882.64 847.89 882.64 847.89"/><polygon class="l" points="881.14 841.09 882.11 844.99 883.08 848.89 881.14 848.89 879.19 848.89 880.16 844.99 881.14 841.09 881.14 841.09"/><polygon class="m" points="875.88 830.55 873.01 826.09 873.01 831.83 875.88 831.83 875.88 830.55 875.88 830.55"/><polygon class="n" points="875.48 805.6 872.61 810.07 872.61 804.33 875.48 804.33 875.48 805.6 875.48 805.6"/><polygon class="o" points="841.83 830.55 844.7 826.09 844.7 831.83 841.83 831.83 841.83 830.55 841.83 830.55"/><polygon class="p" points="842.23 805.6 845.1 810.07 845.1 804.33 842.23 804.33 842.23 805.6 842.23 805.6"/><polygon class="q" points="858.6 710.59 859.13 710.59 859.13 728.21 858.6 728.21 858.6 710.59 858.6 710.59"/><polygon class="r" points="856.92 712.9 856.92 712.36 860.81 712.36 860.81 712.9 856.92 712.9 856.92 712.9"/><polygon class="s" points="1012.89 695.52 1146.32 695.52 1146.32 1003.45 1012.89 1003.45 1012.89 695.52 1012.89 695.52"/><polygon class="t" points="1042.68 679.21 1116.53 679.21 1116.53 704.84 1042.68 704.84 1042.68 679.21 1042.68 679.21"/><polygon class="u" points="1040.9 679.21 1118.33 679.21 1118.33 680.2 1040.9 680.2 1040.9 679.21 1040.9 679.21"/><polygon class="v" points="1053.72 677.22 1058.8 677.22 1058.8 679.7 1053.72 679.7 1053.72 677.22 1053.72 677.22"/><polygon class="w" points="1062.07 677.56 1064.61 677.56 1064.61 679.88 1062.07 679.88 1062.07 677.56 1062.07 677.56"/><polygon class="x" points="1110.88 676.07 1102.9 676.07 1102.9 679.54 1110.88 679.54 1110.88 676.07 1110.88 676.07"/><polygon class="y" points="1099.08 677.88 1105.25 677.88 1105.25 679.38 1099.08 679.38 1099.08 677.88 1099.08 677.88"/><polygon class="z" points="1143.01 702.62 1147.9 702.62 1147.9 695.52 1143.01 695.52 1143.01 702.62 1143.01 702.62"/><polygon class="aa" points="1143.01 713.78 1147.9 713.78 1147.9 706.67 1143.01 706.67 1143.01 713.78 1143.01 713.78"/><polygon class="ab" points="1143.01 724.93 1147.9 724.93 1147.9 717.82 1143.01 717.82 1143.01 724.93 1143.01 724.93"/><polygon class="ac" points="1143.01 736.08 1147.9 736.08 1147.9 728.98 1143.01 728.98 1143.01 736.08 1143.01 736.08"/><polygon class="ad" points="1143.01 747.24 1147.9 747.24 1147.9 740.13 1143.01 740.13 1143.01 747.24 1143.01 747.24"/><polygon class="ae" points="1143.01 758.39 1147.9 758.39 1147.9 751.28 1143.01 751.28 1143.01 758.39 1143.01 758.39"/><polygon class="af" points="1143.01 769.54 1147.9 769.54 1147.9 762.44 1143.01 762.44 1143.01 769.54 1143.01 769.54"/><polygon class="ag" points="1143.01 780.7 1147.9 780.7 1147.9 773.59 1143.01 773.59 1143.01 780.7 1143.01 780.7"/><polygon class="ah" points="1143.01 791.85 1147.9 791.85 1147.9 784.74 1143.01 784.74 1143.01 791.85 1143.01 791.85"/><polygon class="ai" points="1143.01 803 1147.9 803 1147.9 795.9 1143.01 795.9 1143.01 803 1143.01 803"/><polygon class="aj" points="1143.01 814.17 1147.9 814.17 1147.9 807.05 1143.01 807.05 1143.01 814.17 1143.01 814.17"/><polygon class="ak" points="1143.01 825.32 1147.9 825.32 1147.9 818.2 1143.01 818.2 1143.01 825.32 1143.01 825.32"/><polygon class="al" points="1143.01 836.47 1147.9 836.47 1147.9 829.36 1143.01 829.36 1143.01 836.47 1143.01 836.47"/><polygon class="am" points="1143.01 847.63 1147.9 847.63 1147.9 840.51 1143.01 840.51 1143.01 847.63 1143.01 847.63"/><polygon class="an" points="1143.01 858.78 1147.9 858.78 1147.9 851.66 1143.01 851.66 1143.01 858.78 1143.01 858.78"/><polygon class="ao" points="1143.01 869.93 1147.9 869.93 1147.9 862.81 1143.01 862.81 1143.01 869.93 1143.01 869.93"/><polygon class="ap" points="1143.01 881.09 1147.9 881.09 1147.9 873.97 1143.01 873.97 1143.01 881.09 1143.01 881.09"/><polygon class="aq" points="1143.01 892.24 1147.9 892.24 1147.9 885.12 1143.01 885.12 1143.01 892.24 1143.01 892.24"/><polygon class="ar" points="1143.01 903.39 1147.9 903.39 1147.9 896.27 1143.01 896.27 1143.01 903.39 1143.01 903.39"/><polygon class="as" points="1143.01 914.55 1147.9 914.55 1147.9 907.43 1143.01 907.43 1143.01 914.55 1143.01 914.55"/><polygon class="at" points="1143.01 925.7 1147.9 925.7 1147.9 918.58 1143.01 918.58 1143.01 925.7 1143.01 925.7"/><polygon class="au" points="1143.01 936.85 1147.9 936.85 1147.9 929.75 1143.01 929.75 1143.01 936.85 1143.01 936.85"/><polygon class="av" points="1143.01 948 1147.9 948 1147.9 940.9 1143.01 940.9 1143.01 948 1143.01 948"/><polygon class="aw" points="1143.01 959.16 1147.9 959.16 1147.9 952.05 1143.01 952.05 1143.01 959.16 1143.01 959.16"/><polygon class="ax" points="1143.01 970.31 1147.9 970.31 1147.9 963.2 1143.01 963.2 1143.01 970.31 1143.01 970.31"/><polygon class="ay" points="1143.01 981.46 1147.9 981.46 1147.9 974.36 1143.01 974.36 1143.01 981.46 1143.01 981.46"/><polygon class="az" points="1143.01 992.62 1147.9 992.62 1147.9 985.51 1143.01 985.51 1143.01 992.62 1143.01 992.62"/><polygon class="ba" points="1011.31 702.62 1016.2 702.62 1016.2 695.52 1011.31 695.52 1011.31 702.62 1011.31 702.62"/><polygon class="bb" points="1011.31 713.78 1016.2 713.78 1016.2 706.67 1011.31 706.67 1011.31 713.78 1011.31 713.78"/><polygon class="bc" points="1011.31 724.93 1016.2 724.93 1016.2 717.82 1011.31 717.82 1011.31 724.93 1011.31 724.93"/><polygon class="bd" points="1011.31 736.08 1016.2 736.08 1016.2 728.98 1011.31 728.98 1011.31 736.08 1011.31 736.08"/><polygon class="be" points="1011.31 747.24 1016.2 747.24 1016.2 740.13 1011.31 740.13 1011.31 747.24 1011.31 747.24"/><polygon class="bf" points="1011.31 758.39 1016.2 758.39 1016.2 751.28 1011.31 751.28 1011.31 758.39 1011.31 758.39"/><polygon class="bg" points="1011.31 769.54 1016.2 769.54 1016.2 762.44 1011.31 762.44 1011.31 769.54 1011.31 769.54"/><polygon class="bh" points="1011.31 780.7 1016.2 780.7 1016.2 773.59 1011.31 773.59 1011.31 780.7 1011.31 780.7"/><polygon class="bi" points="1011.31 791.85 1016.2 791.85 1016.2 784.74 1011.31 784.74 1011.31 791.85 1011.31 791.85"/><polygon class="bj" points="1011.31 803 1016.2 803 1016.2 795.9 1011.31 795.9 1011.31 803 1011.31 803"/><polygon class="bk" points="1011.31 814.17 1016.2 814.17 1016.2 807.05 1011.31 807.05 1011.31 814.17 1011.31 814.17"/><polygon class="bl" points="1011.31 825.32 1016.2 825.32 1016.2 818.2 1011.31 818.2 1011.31 825.32 1011.31 825.32"/><polygon class="bm" points="1011.31 836.47 1016.2 836.47 1016.2 829.36 1011.31 829.36 1011.31 836.47 1011.31 836.47"/><polygon class="bn" points="1011.31 847.63 1016.2 847.63 1016.2 840.51 1011.31 840.51 1011.31 847.63 1011.31 847.63"/><polygon class="bo" points="1011.31 858.78 1016.2 858.78 1016.2 851.66 1011.31 851.66 1011.31 858.78 1011.31 858.78"/><polygon class="bp" points="1011.31 869.93 1016.2 869.93 1016.2 862.81 1011.31 862.81 1011.31 869.93 1011.31 869.93"/><polygon class="bq" points="1011.31 881.09 1016.2 881.09 1016.2 873.97 1011.31 873.97 1011.31 881.09 1011.31 881.09"/><polygon class="br" points="1011.31 892.24 1016.2 892.24 1016.2 885.12 1011.31 885.12 1011.31 892.24 1011.31 892.24"/><polygon class="bs" points="1011.31 903.39 1016.2 903.39 1016.2 896.27 1011.31 896.27 1011.31 903.39 1011.31 903.39"/><polygon class="bt" points="1011.31 914.55 1016.2 914.55 1016.2 907.43 1011.31 907.43 1011.31 914.55 1011.31 914.55"/><polygon class="bu" points="1011.31 925.7 1016.2 925.7 1016.2 918.58 1011.31 918.58 1011.31 925.7 1011.31 925.7"/><polygon class="bv" points="1011.31 936.85 1016.2 936.85 1016.2 929.75 1011.31 929.75 1011.31 936.85 1011.31 936.85"/><polygon class="bw" points="1011.31 948 1016.2 948 1016.2 940.9 1011.31 940.9 1011.31 948 1011.31 948"/><polygon class="bx" points="1011.31 959.16 1016.2 959.16 1016.2 952.05 1011.31 952.05 1011.31 959.16 1011.31 959.16"/><polygon class="by" points="1011.31 970.31 1016.2 970.31 1016.2 963.2 1011.31 963.2 1011.31 970.31 1011.31 970.31"/><polygon class="bz" points="1011.31 981.46 1016.2 981.46 1016.2 974.36 1011.31 974.36 1011.31 981.46 1011.31 981.46"/><polygon class="ca" points="1011.31 992.62 1016.2 992.62 1016.2 985.51 1011.31 985.51 1011.31 992.62 1011.31 992.62"/><polygon class="cb" points="1292.91 932.99 1384.72 932.99 1384.72 1002.04 1292.91 1002.04 1292.91 932.99 1292.91 932.99"/><polygon class="cc" points="1336.88 905.41 1385.38 905.41 1385.38 946.78 1336.88 946.78 1336.88 905.41 1336.88 905.41"/><polygon class="cd" points="1334.88 907.97 1340.03 907.97 1340.03 913.96 1334.88 913.96 1334.88 907.97 1334.88 907.97"/><polygon class="ce" points="1334.88 916.6 1340.03 916.6 1340.03 922.59 1334.88 922.59 1334.88 916.6 1334.88 916.6"/><polygon class="cf" points="1334.88 925.23 1340.03 925.23 1340.03 931.22 1334.88 931.22 1334.88 925.23 1334.88 925.23"/><polygon class="cg" points="1341.42 904.28 1372.4 904.28 1372.4 906.58 1341.42 906.58 1341.42 904.28 1341.42 904.28"/><polygon class="ch" points="1371.37 898.99 1356.75 898.99 1356.75 905.72 1371.37 905.72 1371.37 898.99 1371.37 898.99"/><polygon class="ci" points="1359.69 898.15 1363.47 898.15 1363.47 899.77 1359.69 899.77 1359.69 898.15 1359.69 898.15"/><polygon class="cj" points="1305.35 926.64 1328.83 926.64 1328.83 936.04 1305.35 936.04 1305.35 926.64 1305.35 926.64"/><path class="ck" d="M948.84,784.89l-1.32-8.37c-.13,0-.17-.24-.2-.59,0-.16,0-.24.07-.28l-1.61-10.22.39-.07.12.74a.81.81,0,0,0,.58-.16,2.22,2.22,0,0,1,1.42-.26c.4.06.75.69,0,.66l-1.32-.07s.66.5,1.06.86.12.6-.31.27a2.29,2.29,0,0,0-1.11-.63h-.21l1.38,8.83h0a1.73,1.73,0,0,0,.88-.5c.28-.22.26-.85.2-1.39s-.12-1,.31-1.21a2,2,0,0,0,.58-.33s.48-.32.37-.46-.06-.37-.35-.25-.37-.52-.37-.52a.62.62,0,0,1,0-.49c.1-.35.06-.52.69-.75s.65-.43.88-.13.6,0,1.09.17l1.23.36c.25.1,0,.5-.32.5a1,1,0,0,1-.57-.15,7.26,7.26,0,0,0,.51.86c.18.2-.14.34-.71-.09s-.88-.77-1.06-.74-.22.55,0,.71.38.75.38.75.8-.29.85.43a7.4,7.4,0,0,0,.71,2.45,2.15,2.15,0,0,1,.09,1.37l.54.8c.34.53.66,1,.41,1s-.53-.23-.81-.55a4.67,4.67,0,0,0-.57-.53,3.73,3.73,0,0,1,.29,1.39c-.12.35-.55.29-.55.29a21.45,21.45,0,0,1,.2,2.2c0,.77.35.74.18,1.34s-.38.81-.06,1.23a6.55,6.55,0,0,1,.49,1.92l-1.24.26a6.39,6.39,0,0,0-.13-1.95,7.41,7.41,0,0,1-.55-2.24c0-.53,0-.48-.74-.42a.88.88,0,0,0-.8,1.25,12.9,12.9,0,0,1,.35,2.3,5,5,0,0,1-.18.93l-1.34.33s.1-.37.18-.83Zm-1-8.62.7,4.53a3.49,3.49,0,0,1,.08-.6c.2-.84.15-1.87.28-2.46s.23-.72.3-1.11a2.42,2.42,0,0,1,.13-.72.33.33,0,0,0,0-.34,8.76,8.76,0,0,0-1.12.48l-.35.22Z"/><path class="cl" d="M951,790.9c3.29,0,6,.18,6,.38s-2.7.39-6,.39-6-.18-6-.39,2.68-.38,6-.38Z"/><path class="cm" d="M947.15,791.29l.25.47c.28.48.23.88-.1.88h-.81a1.66,1.66,0,0,1-1.1-.88l-.27-.47Z"/><path class="cn" d="M954.76,791.29l-.26.47c-.28.48-.22.88.11.88h.81a1.68,1.68,0,0,0,1.09-.88l.26-.47Z"/><path class="co" d="M951,784.86c1.79,0,3.25.36,3.25.82s-1.46.81-3.25.81-3.26-.36-3.26-.81,1.45-.82,3.26-.82Z"/><path class="cp" d="M951,790c3,0,5.34.47,5.34,1s-2.39,1-5.34,1-5.36-.45-5.36-1,2.4-1,5.36-1Z"/><path class="cq" d="M948,785.86h6a.41.41,0,0,1,.34.39l.36,3.94c0,.23-.11.4-.28.4h-6.8c-.17,0-.29-.17-.26-.4l.34-3.94c0-.21.18-.39.35-.39Z"/><path class="cr" d="M946.91,788a.4.4,0,0,1,.4.39.4.4,0,0,1-.4.41.4.4,0,0,1-.39-.41.39.39,0,0,1,.39-.39Z"/><polygon class="cs" points="946.68 788.49 947.15 788.49 947.15 790.59 946.68 790.59 946.68 788.49 946.68 788.49"/><path class="ct" d="M946.18,788.73a.39.39,0,1,1,0,.78.39.39,0,0,1,0-.78Z"/><polygon class="cu" points="945.94 789.23 946.42 789.23 946.42 791.33 945.94 791.33 945.94 789.23 945.94 789.23"/><path class="cv" d="M955.09,788a.4.4,0,1,0,0,.8.4.4,0,0,0,.39-.41.39.39,0,0,0-.39-.39Z"/><polygon class="cw" points="955.34 788.49 954.85 788.49 954.85 790.59 955.34 790.59 955.34 788.49 955.34 788.49"/><path class="cx" d="M955.82,788.73a.39.39,0,1,0,.4.39.39.39,0,0,0-.4-.39Z"/><polygon class="cy" points="956.06 789.23 955.58 789.23 955.58 791.33 956.06 791.33 956.06 789.23 956.06 789.23"/><polygon class="cz" points="946.1 791.4 955.9 791.4 955.9 803.42 946.1 803.42 946.1 791.4 946.1 791.4"/><path class="da" d="M946.88,803c.91,0,1.63.16,1.63.36s-.72.36-1.63.36-1.63-.16-1.63-.36.73-.36,1.63-.36Z"/><path class="db" d="M946.71,803.07c.6,0,1.09.27,1.09.6s-.49.62-1.09.62-1.1-.28-1.1-.62.49-.6,1.1-.6Z"/><path class="dc" d="M955.12,803c-.9,0-1.63.16-1.63.36s.73.36,1.63.36,1.64-.16,1.64-.36-.74-.36-1.64-.36Z"/><path class="dd" d="M955.3,803.07c-.61,0-1.1.27-1.1.6s.49.62,1.1.62,1.11-.28,1.11-.62-.5-.6-1.11-.6Z"/><polygon class="de" points="945.81 803.27 956.19 803.27 956.19 806.1 945.81 806.1 945.81 803.27 945.81 803.27"/><path class="df" d="M941.69,806.68a27.32,27.32,0,0,1,18.62,0v3.79H941.69v-3.79Z"/><path class="dg" d="M940.62,809.76a30.59,30.59,0,0,1,20.76,0V814H940.62v-4.23Z"/><path class="dh" d="M939.63,812.85a33.52,33.52,0,0,1,22.74,0v4.64H939.63v-4.64Z"/><path class="di" d="M951,810.9c16.53,0,30,14.74,30,32.92s-13.42,32.94-30,32.94S921,862,921,843.82s13.42-32.92,30-32.92Z"/><path class="dj" d="M951,857.14c22,0,39.76,2,39.76,4.4S973,866,951,866s-39.76-2-39.76-4.41,17.79-4.4,39.76-4.4Z"/><path class="dk" d="M917.05,856.18h2.26a1.32,1.32,0,0,1,1.33,1.31h0a1.33,1.33,0,0,1-1.33,1.31h-2.26a1.31,1.31,0,0,1-1.31-1.31h0a1.31,1.31,0,0,1,1.31-1.31Z"/><path class="dl" d="M916.57,858.59h2.85a1.22,1.22,0,0,1,1.23,1.23h0a1.23,1.23,0,0,1-1.23,1.24h-2.85a1.23,1.23,0,0,1-1.24-1.24h0a1.23,1.23,0,0,1,1.24-1.23Z"/><path class="dm" d="M918.79,853.83h1.76a.36.36,0,0,1,.36.36v1a.36.36,0,0,1-.36.35h-1.76a.36.36,0,0,1-.36-.35v-1a.36.36,0,0,1,.36-.36Z"/><path class="dn" d="M918.36,855.13h1.53a.21.21,0,0,1,.2.2v1a.19.19,0,0,1-.2.19h-1.53a.18.18,0,0,1-.18-.19v-1a.2.2,0,0,1,.18-.2Z"/><polygon class="do" points="919.84 846.42 925.52 846.42 925.52 861.86 919.84 861.86 919.84 846.42 919.84 846.42"/><path class="dp" d="M919.73,847.17h.5a.33.33,0,0,1,.32.32v1.34a.33.33,0,0,1-.32.33h-.5a.33.33,0,0,1-.32-.33v-1.34a.33.33,0,0,1,.32-.32Z"/><polygon class="dq" points="920.23 843.33 922.01 843.33 922.01 846.48 919.17 846.48 920.23 843.33 920.23 843.33"/><path class="dr" d="M919.56,845.44a.8.8,0,0,1,0,1.58.8.8,0,0,1,0-1.58Z"/><path class="ds" d="M919.86,846.66a.49.49,0,0,1,.49.46.49.49,0,0,1-1,0,.48.48,0,0,1,.48-.46Z"/><path class="dt" d="M914.61,862.27H917a2,2,0,0,1,2,2h0a2,2,0,0,1-2,2h-2.4a2,2,0,0,1-2-2h0a2,2,0,0,1,2-2Z"/><path class="du" d="M912.87,861.35h3.35a1.27,1.27,0,0,1,1.27,1.27h0a1.28,1.28,0,0,1-1.27,1.28h-3.35a1.29,1.29,0,0,1-1.29-1.28h0a1.28,1.28,0,0,1,1.29-1.27Z"/><path class="dv" d="M985,856.18h-2.26a1.32,1.32,0,0,0-1.32,1.31h0a1.32,1.32,0,0,0,1.32,1.31H985a1.31,1.31,0,0,0,1.31-1.31h0a1.31,1.31,0,0,0-1.31-1.31Z"/><path class="dw" d="M985.45,858.59h-2.87a1.23,1.23,0,0,0-1.23,1.23h0a1.23,1.23,0,0,0,1.23,1.24h2.87a1.24,1.24,0,0,0,1.23-1.24h0a1.24,1.24,0,0,0-1.23-1.23Z"/><path class="dx" d="M983.21,853.83h-1.76a.36.36,0,0,0-.35.36v1a.36.36,0,0,0,.35.35h1.76a.36.36,0,0,0,.36-.35v-1a.36.36,0,0,0-.36-.36Z"/><path class="dy" d="M983.64,855.13h-1.53a.21.21,0,0,0-.2.2v1a.19.19,0,0,0,.2.19h1.53a.18.18,0,0,0,.19-.19v-1a.2.2,0,0,0-.19-.2Z"/><polygon class="dz" points="982.18 846.42 976.48 846.42 976.48 861.86 982.18 861.86 982.18 846.42 982.18 846.42"/><path class="ea" d="M982.27,847.17h-.49a.33.33,0,0,0-.33.32v1.34a.33.33,0,0,0,.33.33h.49a.32.32,0,0,0,.32-.33v-1.34a.32.32,0,0,0-.32-.32Z"/><polygon class="eb" points="981.77 843.33 979.99 843.33 979.99 846.48 982.83 846.48 981.77 843.33 981.77 843.33"/><path class="ec" d="M982.46,845.44a.8.8,0,0,0,0,1.58.8.8,0,0,0,0-1.58Z"/><path class="ed" d="M982.14,846.66a.49.49,0,0,0-.49.46.47.47,0,0,0,.49.45.46.46,0,0,0,.48-.45.48.48,0,0,0-.48-.46Z"/><path class="ee" d="M987.39,862.27H985a2,2,0,0,0-2,2h0a2,2,0,0,0,2,2h2.39a2,2,0,0,0,2-2h0a2,2,0,0,0-2-2Z"/><path class="ef" d="M989.15,861.35h-3.37a1.27,1.27,0,0,0-1.27,1.27h0a1.29,1.29,0,0,0,1.27,1.28h3.37a1.29,1.29,0,0,0,1.27-1.28h0a1.27,1.27,0,0,0-1.27-1.27Z"/><polygon class="eg" points="914.41 861.71 987.59 861.71 987.59 925.43 914.41 925.43 914.41 861.71 914.41 861.71"/><path class="eh" d="M914.72,867.21a.82.82,0,1,1,0,1.62.82.82,0,1,1,0-1.62Z"/><path class="ei" d="M914.42,870.54a.39.39,0,0,1,.43.34.4.4,0,0,1-.43.35.4.4,0,0,1-.41-.35.38.38,0,0,1,.41-.34Z"/><path class="ej" d="M914.58,871.75a.39.39,0,0,1,.42.35.43.43,0,0,1-.83,0,.39.39,0,0,1,.41-.35Z"/><path class="ek" d="M914.6,896.94a.34.34,0,1,1,0,.67.35.35,0,1,1,0-.67Z"/><path class="el" d="M914.48,898.05a.27.27,0,0,1,0,.54.27.27,0,0,1,0-.54Z"/><path class="em" d="M987.3,867.21a.82.82,0,1,0,.92.81.87.87,0,0,0-.92-.81Z"/><path class="en" d="M987.58,870.54a.39.39,0,0,0-.42.34.4.4,0,0,0,.42.35.39.39,0,0,0,.41-.35.38.38,0,0,0-.41-.34Z"/><path class="eo" d="M987.43,871.75a.4.4,0,0,0-.43.35.39.39,0,0,0,.43.33.39.39,0,0,0,.42-.33.39.39,0,0,0-.42-.35Z"/><path class="ep" d="M987.42,896.94a.34.34,0,1,0,.41.34.38.38,0,0,0-.41-.34Z"/><path class="eq" d="M987.54,898.05a.27.27,0,0,0,0,.54.27.27,0,1,0,0-.54Z"/><polygon class="er" points="1100.12 921.26 801.88 921.26 801.88 998.06 1100.12 998.06 1100.12 921.26 1100.12 921.26"/><polygon class="es" points="1013.92 903.94 966.5 903.94 966.5 923.61 1013.92 923.61 1013.92 903.94 1013.92 903.94"/><polygon class="et" points="1014.74 904.47 1011.83 904.47 1011.83 903.92 1014.74 903.92 1014.74 904.47 1014.74 904.47"/><polygon class="eu" points="1020.03 908.63 1010.64 908.63 1010.64 909.39 1020.03 909.39 1020.03 908.63 1020.03 908.63"/><polygon class="ev" points="1019.19 909 1013.21 909 1013.21 910.2 1019.19 910.2 1019.19 909 1019.19 909"/><polygon class="ew" points="1018.81 909.69 1013.37 909.69 1013.37 912.02 1018.37 912.02 1018.81 909.69 1018.81 909.69"/><polygon class="ex" points="1012.21 911.41 1101.32 911.41 1105.84 921.79 1012.21 921.79 1012.21 911.41 1012.21 911.41"/><polygon class="ey" points="1104.97 921.52 1095.24 921.52 1095.24 922.67 1104.97 922.67 1104.97 921.52 1104.97 921.52"/><polygon class="ez" points="1104.3 922.43 1099.41 922.43 1099.41 930.58 1104.3 924.12 1104.3 922.43 1104.3 922.43"/><polygon class="fa" points="1098.54 927.4 1100.81 927.4 1100.81 932.7 1098.54 932.7 1098.54 927.4 1098.54 927.4"/><polygon class="fb" points="1101.44 929.61 1099.74 929.61 1099.74 930.11 1101.44 930.11 1101.44 929.61 1101.44 929.61"/><polygon class="fc" points="1102.09 931.8 1099.67 931.8 1099.67 932.2 1102.09 932.2 1102.09 931.8 1102.09 931.8"/><polygon class="fd" points="1101.86 932.12 1099.59 932.12 1099.59 935.75 1101.86 933.49 1101.86 932.12 1101.86 932.12"/><polygon class="fe" points="1101.98 934.45 1100.24 934.45 1100.24 934.71 1101.98 934.71 1101.98 934.45 1101.98 934.45"/><polygon class="ff" points="1101.46 933.55 1100.16 933.55 1100.16 935.19 1101.46 935.19 1101.46 933.55 1101.46 933.55"/><polygon class="fg" points="1101.17 934.95 1099.39 934.95 1099.39 941.96 1101.17 941.96 1101.17 934.95 1101.17 934.95"/><polygon class="fh" points="1101.66 935.87 1100.69 935.87 1100.69 936.39 1101.66 936.39 1101.66 935.87 1101.66 935.87"/><polygon class="fi" points="1101.55 937.21 1100.51 937.21 1100.51 938.23 1101.55 937.5 1101.55 937.21 1101.55 937.21"/><path class="fj" d="M1101.9,911.41h-4.24a.51.51,0,0,0-.49.5v.38a.5.5,0,0,0,.49.48h4.24a.48.48,0,0,0,.49-.48v-.38a.49.49,0,0,0-.49-.5Z"/><path class="fk" d="M1098.25,909h2.52a.48.48,0,0,1,.47.47v2.65a.46.46,0,0,1-.47.46h-2.52a.47.47,0,0,1-.47-.46v-2.65a.48.48,0,0,1,.47-.47Z"/><path class="fl" d="M1098,907.47h3a.6.6,0,0,1,.6.61v.4a.6.6,0,0,1-.6.6h-3a.6.6,0,0,1-.61-.6v-.4a.6.6,0,0,1,.61-.61Z"/><path class="fm" d="M1098.25,904.51h2.52a.46.46,0,0,1,.47.46v2.65a.47.47,0,0,1-.47.47h-2.52a.48.48,0,0,1-.47-.47V905a.47.47,0,0,1,.47-.46Z"/><path class="fn" d="M1097.58,903.45h.69a.18.18,0,0,1,.17.18v.47a.17.17,0,0,1-.17.16h-.69a.16.16,0,0,1-.17-.16v-.47a.18.18,0,0,1,.17-.18Z"/><polygon class="fo" points="1097.54 903.99 1098.31 903.99 1098.31 907.96 1097.54 907.96 1097.54 903.99 1097.54 903.99"/><path class="fp" d="M1100.76,903.45h.68a.18.18,0,0,1,.18.18v.47a.16.16,0,0,1-.18.16h-.68a.16.16,0,0,1-.16-.16v-.47a.18.18,0,0,1,.16-.18Z"/><polygon class="fq" points="1100.73 903.99 1101.48 903.99 1101.48 907.96 1100.73 907.96 1100.73 903.99 1100.73 903.99"/><path class="fr" d="M1002.59,904.3c-.11.08-1.29-.9-1.33-1.44s.15-2.14.15-2.14-.9-.19-1,.18-.43,0-.75.53-.39.4-.39.83-.53.58-.53.58l-.54.07-.6-.11s.13-.6-.15-.54-.47-.21-.62.11-.42.11-.38.39-.58.4-1,.36-1.26-.07-1.26-.07,0-.75-.32-.68-.32-.26-.64,0a7.33,7.33,0,0,0-.75,2s10.3-.15,10.2-.08Z"/><polygon class="fs" points="888.08 903.94 935.5 903.94 935.5 923.61 888.08 923.61 888.08 903.94 888.08 903.94"/><polygon class="ft" points="887.27 904.47 890.17 904.47 890.17 903.92 887.27 903.92 887.27 904.47 887.27 904.47"/><polygon class="fu" points="881.97 908.63 891.37 908.63 891.37 909.39 881.97 909.39 881.97 908.63 881.97 908.63"/><polygon class="fv" points="882.81 909 888.79 909 888.79 910.2 882.81 910.2 882.81 909 882.81 909"/><polygon class="fw" points="883.19 909.69 888.63 909.69 888.63 912.02 883.63 912.02 883.19 909.69 883.19 909.69"/><polygon class="fx" points="889.79 911.41 800.68 911.41 796.18 921.79 889.79 921.79 889.79 911.41 889.79 911.41"/><polygon class="fy" points="797.05 921.52 806.76 921.52 806.76 922.67 797.05 922.67 797.05 921.52 797.05 921.52"/><polygon class="fz" points="797.7 922.43 802.6 922.43 802.6 930.58 797.7 924.12 797.7 922.43 797.7 922.43"/><polygon class="ga" points="803.47 927.4 801.19 927.4 801.19 932.7 803.47 932.7 803.47 927.4 803.47 927.4"/><polygon class="gb" points="800.56 929.61 802.26 929.61 802.26 930.11 800.56 930.11 800.56 929.61 800.56 929.61"/><polygon class="gc" points="799.93 931.8 802.33 931.8 802.33 932.2 799.93 932.2 799.93 931.8 799.93 931.8"/><polygon class="gd" points="800.14 932.12 802.41 932.12 802.41 935.75 800.14 933.49 800.14 932.12 800.14 932.12"/><polygon class="ge" points="800.02 934.45 801.76 934.45 801.76 934.71 800.02 934.71 800.02 934.45 800.02 934.45"/><polygon class="gf" points="800.54 933.55 801.85 933.55 801.85 935.19 800.54 935.19 800.54 933.55 800.54 933.55"/><polygon class="gg" points="800.84 934.95 802.61 934.95 802.61 941.96 800.84 941.96 800.84 934.95 800.84 934.95"/><polygon class="gh" points="800.36 935.87 801.32 935.87 801.32 936.39 800.36 936.39 800.36 935.87 800.36 935.87"/><polygon class="gi" points="800.45 937.21 801.5 937.21 801.5 938.23 800.45 937.5 800.45 937.21 800.45 937.21"/><path class="gj" d="M800.1,911.41h4.24a.49.49,0,0,1,.49.5v.38a.48.48,0,0,1-.49.48H800.1a.48.48,0,0,1-.48-.48v-.38a.49.49,0,0,1,.48-.5Z"/><path class="gk" d="M803.75,909h-2.52a.48.48,0,0,0-.47.47v2.65a.46.46,0,0,0,.47.46h2.52a.45.45,0,0,0,.47-.46v-2.65a.47.47,0,0,0-.47-.47Z"/><path class="gl" d="M804,907.47h-3a.61.61,0,0,0-.62.61v.4a.61.61,0,0,0,.62.6h3a.6.6,0,0,0,.6-.6v-.4a.6.6,0,0,0-.6-.61Z"/><path class="gm" d="M803.75,904.51h-2.52a.46.46,0,0,0-.47.46v2.65a.47.47,0,0,0,.47.47h2.52a.46.46,0,0,0,.47-.47V905a.45.45,0,0,0-.47-.46Z"/><path class="gn" d="M804.43,903.45h-.7a.18.18,0,0,0-.16.18v.47a.16.16,0,0,0,.16.16h.7a.16.16,0,0,0,.16-.16v-.47a.18.18,0,0,0-.16-.18Z"/><polygon class="go" points="804.46 903.99 803.71 903.99 803.71 907.96 804.46 907.96 804.46 903.99 804.46 903.99"/><path class="gp" d="M801.24,903.45h-.68a.19.19,0,0,0-.18.18v.47a.17.17,0,0,0,.18.16h.68a.17.17,0,0,0,.18-.16v-.47a.19.19,0,0,0-.18-.18Z"/><polygon class="gq" points="801.28 903.99 800.52 903.99 800.52 907.96 801.28 907.96 801.28 903.99 801.28 903.99"/><path class="gr" d="M899.41,904.3c.11.08,1.29-.9,1.33-1.44a19.27,19.27,0,0,0-.15-2.14s.9-.19,1,.18.43,0,.75.53.39.4.39.83.53.58.53.58l.54.07.62-.11s-.15-.6.14-.54.46-.21.61.11.43.11.39.39.57.4,1,.36,1.25-.07,1.25-.07,0-.75.32-.68.32-.26.64,0a7.33,7.33,0,0,1,.75,2s-10.3-.15-10.2-.08Z"/><path class="gs" d="M882.44,908.69l.2-1.72s-.62-.1-.71-.61a2.1,2.1,0,0,1,0-.91s-.54-.28-.58-.57-.51-.62-.13-.78.37-.35.53-.38-.27-.64.38-.57.74.17.74.17.17-.21.57-.07a4.38,4.38,0,0,0,1.38,0c.62,0,1.6.13,1.6-.2s-.27-.75.24-.67a.94.94,0,0,1,.8,1c0,.51-.44.89-.64.89s-.4,0-.47.33-.85.41-.85.41-.4.37,0,.55a.91.91,0,0,1,.55.57s.6.43,1.31,1,.88,1.26.51,1.46a23,23,0,0,1-3.17.44s-.74-.78-.07-.82.8-.27.8-.27-.67-.24-.71-.55-.69-.22-1.17-.13-.14,1.13-.43,1.39a.62.62,0,0,1-.71,0Z"/><polygon class="gt" points="951.01 878.46 983.85 895.92 1016.71 913.4 951.01 913.4 885.29 913.4 918.15 895.92 951.01 878.46 951.01 878.46"/><polygon class="gu" points="902.28 874.41 902.71 874.41 902.71 917.27 902.28 917.27 902.28 874.41 902.28 874.41"/><path class="gv" d="M902.52,873.76a.51.51,0,0,1,.5.49.5.5,0,0,1-.5.49.49.49,0,0,1-.48-.49.5.5,0,0,1,.48-.49Z"/><path class="gw" d="M902.56,875.53c3.72,0,2.72,6.09,6.44,6.09v5.59c-3.55-1.24-4.13-7.26-6.44-6.09v-5.59Z"/><polygon class="gx" points="1697.02 898.46 1792.28 898.46 1792.28 1002.94 1697.02 1002.94 1697.02 898.46 1697.02 898.46"/><polygon class="gy" points="1725.3 888.9 1764 888.9 1764 901.9 1725.3 901.9 1725.3 888.9 1725.3 888.9"/><polygon class="gz" points="1743.43 887.99 1747.95 887.99 1747.95 889.53 1743.43 889.53 1743.43 887.99 1743.43 887.99"/><polygon class="ha" points="1746.57 887.15 1745.13 887.15 1745.13 888.47 1746.57 888.47 1746.57 887.15 1746.57 887.15"/><polygon class="hb" points="1743.74 879.84 1744.27 879.84 1744.27 889.22 1743.74 889.22 1743.74 879.84 1743.74 879.84"/><polygon class="hc" points="1739.54 885.38 1739.97 885.38 1739.97 890.5 1739.54 890.5 1739.54 885.38 1739.54 885.38"/><polygon class="hd" points="1809.54 905.47 1810.81 905.47 1819.52 905.47 1820.81 905.47 1839.94 921.22 1819.52 921.22 1810.81 921.22 1790.38 921.22 1809.54 905.47 1809.54 905.47"/><polygon class="he" points="1783.54 920.42 1862.87 920.42 1862.87 938.52 1783.54 938.52 1783.54 920.42 1783.54 920.42"/><polygon class="hf" points="1775.24 924.9 1864.99 924.9 1864.99 993.71 1775.24 993.71 1775.24 924.9 1775.24 924.9"/><polygon class="hg" points="1860.7 928.59 1866.1 928.59 1866.1 930 1860.7 930 1860.7 928.59 1860.7 928.59"/><polygon class="hh" points="1860.7 937.47 1866.1 937.47 1866.1 938.87 1860.7 938.87 1860.7 937.47 1860.7 937.47"/><polygon class="hi" points="556.26 812.41 667.9 812.41 667.9 942.5 556.26 942.5 556.26 812.41 556.26 812.41"/><polygon class="hj" points="682.95 827.14 612.64 827.14 612.64 942.22 682.95 942.22 682.95 827.14 682.95 827.14"/><polygon class="hk" points="697.82 858.72 627.5 858.72 627.5 973.82 697.82 973.82 697.82 858.72 697.82 858.72"/><polygon class="hl" points="708.32 873.97 638.01 873.97 638.01 995.24 708.32 995.24 708.32 873.97 708.32 873.97"/><polygon class="hm" points="544.86 827.86 563.71 827.86 563.71 852.18 544.86 852.18 544.86 827.86 544.86 827.86"/><polygon class="hn" points="535.68 841.78 566.97 841.78 566.97 880.51 535.68 880.51 535.68 841.78 535.68 841.78"/><polygon class="ho" points="526.5 855.69 545.34 855.69 545.34 880.02 526.5 880.02 526.5 855.69 526.5 855.69"/><polygon class="hp" points="517.31 869.62 660.12 869.62 660.12 995.24 517.31 995.24 517.31 869.62 517.31 869.62"/><polygon class="hq" points="1327.33 747.36 1244.5 747.36 1244.5 994.51 1327.33 994.51 1327.33 747.36 1327.33 747.36"/><polygon class="hr" points="1321.59 724.85 1258.04 724.85 1258.04 759.26 1321.59 759.26 1321.59 724.85 1321.59 724.85"/><polygon class="hs" points="1317.81 710.34 1282.27 710.34 1282.27 732.21 1317.81 732.21 1317.81 710.34 1317.81 710.34"/><polygon class="ht" points="1309.89 709.11 1293.81 709.11 1293.81 712.03 1309.89 712.03 1309.89 709.11 1309.89 709.11"/><polygon class="hu" points="1307.69 707.12 1297.64 707.12 1297.64 710.5 1307.69 710.5 1307.69 707.12 1307.69 707.12"/><polygon class="hv" points="1259.61 730.42 1251.7 730.42 1251.7 752.07 1259.61 752.07 1259.61 730.42 1259.61 730.42"/><polygon class="hw" points="1253.11 739.54 1249.4 739.54 1249.4 750.66 1253.11 750.66 1253.11 739.54 1253.11 739.54"/><polygon class="hx" points="1284.3 717.71 1279.2 717.71 1279.2 729.93 1284.3 729.93 1284.3 717.71 1284.3 717.71"/><polygon class="hy" points="1280.5 719.01 1273.4 719.01 1273.4 727.62 1280.5 727.62 1280.5 719.01 1280.5 719.01"/><polygon class="hz" points="1275.3 717.71 1260 717.71 1260 728.03 1275.3 728.03 1275.3 717.71 1275.3 717.71"/><polygon class="ia" points="1262.51 721.02 1258.9 721.02 1258.9 726.52 1262.51 726.52 1262.51 721.02 1262.51 721.02"/><polygon class="ib" points="1290.9 709.4 1284.7 709.4 1284.7 712 1290.9 712 1290.9 709.4 1290.9 709.4"/><path class="ic" d="M779.17,468l41.1,12.18c8.8,173.75,11.3,346.72,5.43,518.66H771.93V494.2l7.24-26.2Z"/><path class="id" d="M752.53,468l-41.1,12.18c-8.8,173.75-11.3,346.72-5.43,518.66h53.77V494.2L752.53,468Z"/><polygon class="ie" points="754.26 486.76 777.44 486.76 777.44 998.84 754.26 998.84 754.26 486.76 754.26 486.76"/><polygon class="if" points="1156.04 823.65 1259.26 823.65 1259.26 996.95 1156.04 996.95 1156.04 823.65 1156.04 823.65"/><polygon class="ig" points="1158.73 780.42 1256.57 780.42 1256.57 953.73 1158.73 953.73 1158.73 780.42 1158.73 780.42"/><polygon class="ih" points="1161.81 768.9 1253.49 768.9 1253.49 942.21 1161.81 942.21 1161.81 768.9 1161.81 768.9"/><polygon class="ii" points="1166.05 753.26 1249.25 753.26 1249.25 926.56 1166.05 926.56 1166.05 753.26 1166.05 753.26"/><polygon class="ij" points="1168.37 731.44 1246.93 731.44 1246.93 904.74 1168.37 904.74 1168.37 731.44 1168.37 731.44"/><polygon class="ik" points="1173.86 716.27 1241.45 716.27 1241.45 889.57 1173.86 889.57 1173.86 716.27 1173.86 716.27"/><polygon class="il" points="1175.35 713.75 1197.9 684.88 1217.4 684.88 1239.95 713.75 1239.95 734.19 1175.35 734.19 1175.35 713.75 1175.35 713.75"/><polygon class="im" points="1199.09 683.41 1216.21 683.41 1216.21 687.99 1199.09 687.99 1199.09 683.41 1199.09 683.41"/><polygon class="in" points="1208.15 684.76 1207.15 684.76 1207.15 596.49 1208.15 596.49 1208.15 684.76 1208.15 684.76"/><path class="io" d="M1204.91,640.51h5.49a.46.46,0,0,1,.43.47v9.21a.45.45,0,0,1-.43.46h-5.49a.44.44,0,0,1-.43-.46V641a.45.45,0,0,1,.43-.47Z"/><polygon class="ip" points="1205.23 649.15 1210.07 649.15 1210.07 657.57 1205.23 657.57 1205.23 649.15 1205.23 649.15"/><polygon class="iq" points="1203.21 657.57 1211.5 657.57 1211.5 684.3 1203.21 684.3 1203.21 657.57 1203.21 657.57"/><polygon class="ir" points="1212.25 657.57 1213.54 657.57 1213.54 684.3 1212.25 684.3 1212.25 657.57 1212.25 657.57"/><polygon class="is" points="1210.43 660.67 1213 660.67 1213 684.3 1210.43 684.3 1210.43 660.67 1210.43 660.67"/><polygon class="it" points="1575.2 614.12 1701.5 614.12 1701.5 997 1575.2 997 1575.2 614.12 1575.2 614.12"/><polygon class="iu" points="1648.85 610.09 1656.49 610.09 1656.49 615.53 1648.85 615.53 1648.85 610.09 1648.85 610.09"/><polygon class="iv" points="1652.41 611.11 1680.42 611.11 1680.42 616.21 1652.41 616.21 1652.41 611.11 1652.41 611.11"/><polygon class="iw" points="1684.67 609.91 1676.35 609.91 1676.35 615.02 1684.67 615.02 1684.67 609.91 1684.67 609.91"/><polygon class="ix" points="1674.82 604.81 1670.23 604.81 1670.23 612.63 1674.82 612.63 1674.82 604.81 1674.82 604.81"/><path class="iy" d="M1655,607.53h3.74a.69.69,0,0,1,.68.68v1.37a.69.69,0,0,1-.68.67H1655a.69.69,0,0,1-.69-.67v-1.37a.69.69,0,0,1,.69-.68Z"/><polygon class="iz" points="1658.7 609.4 1657.68 609.4 1657.68 612.3 1658.7 612.3 1658.7 609.4 1658.7 609.4"/><polygon class="ja" points="1661.93 609.23 1668.04 609.23 1668.04 611.27 1661.93 611.27 1661.93 609.23 1661.93 609.23"/><polygon class="jb" points="1686.02 606.34 1682.97 606.34 1682.97 609.74 1686.02 609.74 1686.02 606.34 1686.02 606.34"/><polygon class="jc" points="1680.19 593.32 1679.74 593.32 1679.74 612.2 1680.19 612.2 1680.19 593.32 1680.19 593.32"/><polygon class="jd" points="1677.08 605.96 1680.37 605.96 1680.37 607.46 1677.08 607.46 1677.08 605.96 1677.08 605.96"/><path class="je" d="M1677,606.88h.87a.69.69,0,0,1,.69.7v2a.7.7,0,0,1-.69.7H1677a.71.71,0,0,1-.69-.7v-2a.7.7,0,0,1,.69-.7Z"/><path class="jf" d="M1670.33,602c1,0,1.79,1.06,1.79,2.37a2.14,2.14,0,0,1-1.79,2.36c-1,0-1.78-1.06-1.78-2.36s.8-2.37,1.78-2.37Z"/><path class="jg" d="M1682.93,608.16a1.4,1.4,0,0,1,1.24,1.52,1.27,1.27,0,1,1-2.48,0,1.4,1.4,0,0,1,1.24-1.52Z"/><polygon class="jh" points="1602.67 602.94 1601.83 602.94 1601.83 616.21 1602.67 616.21 1602.67 602.94 1602.67 602.94"/><path class="ji" d="M1605,612.3h2.85a.92.92,0,0,1,.78,1v1.35a.93.93,0,0,1-.78,1H1605a.93.93,0,0,1-.79-1v-1.35a.93.93,0,0,1,.79-1Z"/><polygon class="jj" points="1597.58 608.89 1596.73 608.89 1596.73 615.86 1597.58 615.86 1597.58 608.89 1597.58 608.89"/><polygon class="jk" points="1588.76 612.97 1597.24 612.97 1597.24 616.55 1588.76 616.55 1588.76 612.97 1588.76 612.97"/><path class="jl" d="M574.23,933.55c58.86,0,106.58,8.12,106.58,18.13s-47.72,18.13-106.58,18.13-106.59-8.12-106.59-18.13,47.72-18.13,106.59-18.13Z"/><polygon class="jm" points="455.14 957.45 693.13 957.45 693.13 1005.22 455.14 1005.22 455.14 957.45 455.14 957.45"/><path class="jn" d="M495.55,948.8c-21.5-2.48-33.71,1.25-40.41,8.66v7.26h40.41V948.8Z"/><polygon class="jo" points="460.56 949.69 476.01 949.69 476.01 955.61 460.56 955.61 460.56 949.69 460.56 949.69"/><path class="jp" d="M651.77,946.46c21.48-2.2,33.69,1.1,40.4,7.66v6.45h-40.4V946.46Z"/><polygon class="jq" points="1481.11 816.46 1597.21 816.46 1597.21 1004.44 1481.11 1004.44 1481.11 816.46 1481.11 816.46"/><polygon class="jr" points="1510.54 804.22 1567.79 804.22 1567.79 819.79 1510.54 819.79 1510.54 804.22 1510.54 804.22"/><polygon class="js" points="1525.28 800.3 1524.39 800.3 1524.39 805.48 1525.28 805.48 1525.28 800.3 1525.28 800.3"/><polygon class="jt" points="1529.22 802.62 1534.59 802.62 1534.59 804.95 1529.22 804.95 1529.22 802.62 1529.22 802.62"/><polygon class="ju" points="1539.07 802.98 1540.85 802.98 1540.85 805.83 1539.07 805.83 1539.07 802.98 1539.07 802.98"/><polygon class="jv" points="1549.8 801.54 1549.08 801.54 1549.08 804.58 1549.8 804.58 1549.8 801.54 1549.8 801.54"/><polygon class="jw" points="1554.09 803.51 1559.81 803.51 1559.81 804.95 1554.09 804.95 1554.09 803.51 1554.09 803.51"/><polygon class="jx" points="1374.66 690.76 1472.9 690.76 1472.9 1005.11 1374.66 1005.11 1374.66 690.76 1374.66 690.76"/><polygon class="jy" points="1407.03 685.35 1440.51 685.35 1440.51 694.55 1407.03 694.55 1407.03 685.35 1407.03 685.35"/><polygon class="jz" points="1448.87 689.93 1447.81 689.93 1447.81 693.36 1448.87 693.36 1448.87 689.93 1448.87 689.93"/><polygon class="ka" points="1460.88 689.93 1459.83 689.93 1459.83 693.36 1460.88 693.36 1460.88 689.93 1460.88 689.93"/><polygon class="kb" points="1472.9 689.93 1471.84 689.93 1471.84 693.36 1472.9 693.36 1472.9 689.93 1472.9 689.93"/><polygon class="kc" points="1437.57 683.51 1433.77 683.51 1433.77 686.27 1437.57 686.27 1437.57 683.51 1437.57 683.51"/><polygon class="kd" points="1429.44 684.82 1435.08 684.82 1435.08 686.27 1429.44 686.27 1429.44 684.82 1429.44 684.82"/><polygon class="ke" points="1436.66 682.58 1434.29 682.58 1434.29 684.43 1436.66 684.43 1436.66 682.58 1436.66 682.58"/><polygon class="kf" points="1409.1 684.57 1413.42 684.57 1413.42 686 1409.1 686 1409.1 684.57 1409.1 684.57"/><polygon class="kg" points="1914.46 983.75 1838.12 983.75 1838.12 1012.97 1914.46 1012.97 1914.46 983.75 1914.46 983.75"/><polygon class="kh" points="1881.24 953.36 1840.95 953.36 1840.95 1017.64 1881.24 1017.64 1881.24 953.36 1881.24 953.36"/><polygon class="ki" points="1882.69 954.97 1876.91 954.97 1876.91 958.33 1882.69 958.33 1882.69 954.97 1882.69 954.97"/><polygon class="kj" points="1882.69 961.69 1876.91 961.69 1876.91 965.06 1882.69 965.06 1882.69 961.69 1882.69 961.69"/><polygon class="kk" points="1882.69 968.42 1876.91 968.42 1876.91 971.78 1882.69 971.78 1882.69 968.42 1882.69 968.42"/><polygon class="kl" points="1882.69 975.15 1876.91 975.15 1876.91 978.5 1882.69 978.5 1882.69 975.15 1882.69 975.15"/><polygon class="km" points="1882.69 981.86 1876.91 981.86 1876.91 985.23 1882.69 985.23 1882.69 981.86 1882.69 981.86"/><polygon class="kn" points="1892.3 978.03 1905.71 978.03 1905.71 984.86 1892.3 984.86 1892.3 978.03 1892.3 978.03"/><polygon class="ko" points="1874.72 952.3 1844.75 952.3 1844.75 955.21 1874.72 955.21 1874.72 952.3 1874.72 952.3"/><polygon class="kp" points="1846.13 947.44 1846.6 947.44 1846.6 953.47 1846.13 953.47 1846.13 947.44 1846.13 947.44"/></g></svg>